ISO-10303-21;
HEADER;
FILE_DESCRIPTION (( 'STEP AP203' ),
    '1' );
FILE_NAME ('MA-00021-AB-Bracket Plate.STEP',
    '2026-03-30T22:32:59',
    ( '' ),
    ( '' ),
    'SwSTEP 2.0',
    'SolidWorks 2025',
    '' );
FILE_SCHEMA (( 'CONFIG_CONTROL_DESIGN' ));
ENDSEC;

DATA;
#1 = LINE ( 'NONE', #1020, #745 ) ;
#2 = FACE_OUTER_BOUND ( 'NONE', #138, .T. ) ;
#3 = DIRECTION ( 'NONE',  ( -0.000000000000000000, 0.000000000000000000, 1.000000000000000000 ) ) ;
#4 = VERTEX_POINT ( 'NONE', #851 ) ;
#6 = CIRCLE ( 'NONE', #1059, 0.4375000000000000000 ) ;
#5 = VECTOR ( 'NONE', #803, 39.37007874015748143 ) ;
#7 = DIRECTION ( 'NONE',  ( 1.000000000000000000, 0.000000000000000000, 0.000000000000000000 ) ) ;
#8 = PERSON_AND_ORGANIZATION_ROLE ( 'design_owner' ) ;
#9 = CARTESIAN_POINT ( 'NONE',  ( 1.249999999999999334, 1.750000000000000000, -0.3750000000000000555 ) ) ;
#10 = FACE_BOUND ( 'NONE', #992, .T. ) ;
#11 = DIRECTION ( 'NONE',  ( -1.000000000000000000, 0.000000000000000000, 0.000000000000000000 ) ) ;
#12 = CIRCLE ( 'NONE', #613, 0.1250000000000001665 ) ;
#13 = EDGE_CURVE ( 'NONE', #417, #416, #330, .T. ) ;
#14 = AXIS2_PLACEMENT_3D ( 'NONE', #183, #423, #1047 ) ;
#15 = CARTESIAN_POINT ( 'NONE',  ( -1.750000000000001110, 0.000000000000000000, 0.3750000000000000555 ) ) ;
#16 = CARTESIAN_POINT ( 'NONE',  ( 1.250000000000000000, -0.3999999999999998557, 0.3750000000000000555 ) ) ;
#17 = DIRECTION ( 'NONE',  ( 0.000000000000000000, 0.000000000000000000, 1.000000000000000000 ) ) ;
#18 = PERSON_AND_ORGANIZATION ( #298, #279 ) ;
#19 = EDGE_CURVE ( 'NONE', #221, #820, #509, .T. ) ;
#20 = CARTESIAN_POINT ( 'NONE',  ( 0.09375000000000027756, -0.5362499999999998934, 0.000000000000000000 ) ) ;
#21 = FACE_OUTER_BOUND ( 'NONE', #720, .T. ) ;
#22 = ORIENTED_EDGE ( 'NONE', *, *, #326, .F. ) ;
#23 = DIRECTION ( 'NONE',  ( 0.000000000000000000, -0.000000000000000000, -1.000000000000000000 ) ) ;
#24 = CARTESIAN_POINT ( 'NONE',  ( 1.250000000000000000, -0.3999999999999998557, 0.3750000000000000555 ) ) ;
#25 = CARTESIAN_POINT ( 'NONE',  ( 1.375000000000001110, -1.250000000000000000, 0.3750000000000000555 ) ) ;
#26 = ADVANCED_FACE ( 'NONE', ( #768 ), #927, .F. ) ;
#27 = VERTEX_POINT ( 'NONE', #84 ) ;
#28 = ORIENTED_EDGE ( 'NONE', *, *, #62, .F. ) ;
#29 = DIRECTION ( 'NONE',  ( 0.000000000000000000, -1.000000000000000000, 0.000000000000000000 ) ) ;
#30 = SHAPE_DEFINITION_REPRESENTATION ( #887, #804 ) ;
#31 = VECTOR ( 'NONE', #664, 39.37007874015748143 ) ;
#32 =( LENGTH_UNIT ( ) NAMED_UNIT ( * ) SI_UNIT ( $, .METRE. ) );
#33 = DIRECTION ( 'NONE',  ( 1.000000000000000000, 0.000000000000000000, 0.000000000000000000 ) ) ;
#34 = CIRCLE ( 'NONE', #550, 0.4375000000000000000 ) ;
#35 = EDGE_LOOP ( 'NONE', ( #489, #572, #495, #1008 ) ) ;
#36 = CARTESIAN_POINT ( 'NONE',  ( 1.125000000000000666, 1.250000000000000000, 0.3750000000000000555 ) ) ;
#37 = CARTESIAN_POINT ( 'NONE',  ( 0.000000000000000000, 0.000000000000000000, 0.000000000000000000 ) ) ;
#38 = PLANE ( 'NONE',  #950 ) ;
#39 = ORIENTED_EDGE ( 'NONE', *, *, #614, .T. ) ;
#40 = DIRECTION ( 'NONE',  ( 0.000000000000000000, -1.000000000000000000, 0.000000000000000000 ) ) ;
#41 = ADVANCED_FACE ( 'NONE', ( #512 ), #92, .F. ) ;
#42 = AXIS2_PLACEMENT_3D ( 'NONE', #623, #1054, #958 ) ;
#43 = CARTESIAN_POINT ( 'NONE',  ( 0.4375000000000000000, 5.357829746269668895E-17, 0.3750000000000000555 ) ) ;
#44 = VERTEX_POINT ( 'NONE', #854 ) ;
#45 = CARTESIAN_POINT ( 'NONE',  ( 1.250000000000000888, 1.250000000000000000, -0.3750000000000000555 ) ) ;
#46 = PRODUCT_RELATED_PRODUCT_CATEGORY ( 'detail', '', ( #1063 ) ) ;
#47 = DIRECTION ( 'NONE',  ( 1.000000000000000000, 0.000000000000000000, 0.000000000000000000 ) ) ;
#48 = APPROVAL_PERSON_ORGANIZATION ( #943, #457, #530 ) ;
#49 = ORIENTED_EDGE ( 'NONE', *, *, #675, .F. ) ;
#50 = ORIENTED_EDGE ( 'NONE', *, *, #1042, .T. ) ;
#51 = CARTESIAN_POINT ( 'NONE',  ( -1.250000000000000888, 1.249999999999999778, 0.3750000000000000555 ) ) ;
#52 = CARTESIAN_POINT ( 'NONE',  ( 1.250000000000000888, -1.250000000000000000, -0.3750000000000000555 ) ) ;
#53 = ADVANCED_FACE ( 'NONE', ( #861, #2, #340, #253, #428, #774, #10, #602 ), #178, .T. ) ;
#54 = ORIENTED_EDGE ( 'NONE', *, *, #77, .F. ) ;
#55 = EDGE_LOOP ( 'NONE', ( #648, #399, #566, #831 ) ) ;
#56 = CARTESIAN_POINT ( 'NONE',  ( 1.375000000000001110, 1.250000000000000000, 0.3750000000000000555 ) ) ;
#57 = CARTESIAN_POINT ( 'NONE',  ( -0.09374999999999973632, -0.5362499999999998934, 0.3750000000000000555 ) ) ;
#58 = VECTOR ( 'NONE', #29, 39.37007874015748143 ) ;
#59 = VECTOR ( 'NONE', #1027, 39.37007874015748143 ) ;
#60 = DIRECTION ( 'NONE',  ( 1.000000000000000000, 0.000000000000000000, 0.000000000000000000 ) ) ;
#61 = VERTEX_POINT ( 'NONE', #867 ) ;
#62 = EDGE_CURVE ( 'NONE', #318, #221, #148, .T. ) ;
#63 = ORIENTED_EDGE ( 'NONE', *, *, #372, .F. ) ;
#64 = DIRECTION ( 'NONE',  ( -0.000000000000000000, -0.000000000000000000, -1.000000000000000000 ) ) ;
#65 = CARTESIAN_POINT ( 'NONE',  ( -1.375000000000001110, -1.249999999999999778, 0.3750000000000000555 ) ) ;
#66 = FACE_OUTER_BOUND ( 'NONE', #518, .T. ) ;
#67 = ORIENTED_EDGE ( 'NONE', *, *, #934, .F. ) ;
#68 = LOCAL_TIME ( 15, 32, 59.00000000000000000, #280 ) ;
#69 = ORIENTED_EDGE ( 'NONE', *, *, #776, .F. ) ;
#70 = CARTESIAN_POINT ( 'NONE',  ( 1.749999999999998890, 0.000000000000000000, -0.3750000000000000555 ) ) ;
#71 = EDGE_CURVE ( 'NONE', #194, #592, #131, .T. ) ;
#72 = FACE_OUTER_BOUND ( 'NONE', #655, .T. ) ;
#73 = DIRECTION ( 'NONE',  ( 1.000000000000000000, 0.000000000000000000, 0.000000000000000000 ) ) ;
#74 = ORIENTED_EDGE ( 'NONE', *, *, #387, .F. ) ;
#75 = EDGE_LOOP ( 'NONE', ( #987, #983, #69, #812 ) ) ;
#76 = LINE ( 'NONE', #231, #684 ) ;
#77 = EDGE_CURVE ( 'NONE', #251, #27, #548, .T. ) ;
#78 = CARTESIAN_POINT ( 'NONE',  ( -1.750000000000001110, -1.249999999999998668, 0.3750000000000000555 ) ) ;
#79 = DIRECTION ( 'NONE',  ( 1.680074030415516870E-15, -1.000000000000000000, 0.000000000000000000 ) ) ;
#80 = ORIENTED_EDGE ( 'NONE', *, *, #751, .T. ) ;
#82 = AXIS2_PLACEMENT_3D ( 'NONE', #1004, #746, #1088 ) ;
#81 = AXIS2_PLACEMENT_3D ( 'NONE', #662, #645, #737 ) ;
#83 = CARTESIAN_POINT ( 'NONE',  ( -1.249999999999999778, 1.750000000000000000, 0.3750000000000000555 ) ) ;
#84 = CARTESIAN_POINT ( 'NONE',  ( 1.749999999999998890, -1.250000000000000222, 0.3750000000000000555 ) ) ;
#85 = AXIS2_PLACEMENT_3D ( 'NONE', #1026, #1040, #1031 ) ;
#86 = VECTOR ( 'NONE', #842, 39.37007874015748143 ) ;
#87 = DIRECTION ( 'NONE',  ( -0.000000000000000000, -0.000000000000000000, -1.000000000000000000 ) ) ;
#88 = CARTESIAN_POINT ( 'NONE',  ( 0.4375000000000000000, 5.357829746269668895E-17, 0.3750000000000000555 ) ) ;
#89 = EDGE_CURVE ( 'NONE', #1069, #222, #772, .T. ) ;
#90 = DIRECTION ( 'NONE',  ( 0.000000000000000000, 0.000000000000000000, -1.000000000000000000 ) ) ;
#91 = DIRECTION ( 'NONE',  ( -0.7071067811865463515, 0.7071067811865486830, -0.000000000000000000 ) ) ;
#92 = PLANE ( 'NONE',  #484 ) ;
#93 = ADVANCED_FACE ( 'NONE', ( #456 ), #785, .F. ) ;
#95 = CIRCLE ( 'NONE', #844, 0.09375000000000001388 ) ;
#94 = AXIS2_PLACEMENT_3D ( 'NONE', #465, #191, #119 ) ;
#96 = AXIS2_PLACEMENT_3D ( 'NONE', #665, #422, #100 ) ;
#97 = CARTESIAN_POINT ( 'NONE',  ( 0.000000000000000000, 0.000000000000000000, -0.3750000000000000555 ) ) ;
#98 = CALENDAR_DATE ( 2026, 30, 3 ) ;
#99 = DIRECTION ( 'NONE',  ( -0.000000000000000000, 0.000000000000000000, 1.000000000000000000 ) ) ;
#100 = DIRECTION ( 'NONE',  ( -1.000000000000000000, 0.000000000000000000, 0.000000000000000000 ) ) ;
#101 = CARTESIAN_POINT ( 'NONE',  ( 0.09375000000000026368, -0.4273373228492919340, 0.000000000000000000 ) ) ;
#102 = EDGE_CURVE ( 'NONE', #592, #194, #429, .T. ) ;
#103 = APPROVAL_DATE_TIME ( #864, #920 ) ;
#104 = CIRCLE ( 'NONE', #205, 0.1250000000000001665 ) ;
#105 = CYLINDRICAL_SURFACE ( 'NONE', #705, 0.1250000000000001665 ) ;
#106 = CARTESIAN_POINT ( 'NONE',  ( 0.000000000000000000, 0.000000000000000000, 0.3750000000000000555 ) ) ;
#107 = ORIENTED_EDGE ( 'NONE', *, *, #939, .T. ) ;
#108 = CARTESIAN_POINT ( 'NONE',  ( 1.250000000000000888, -1.250000000000000000, -0.3750000000000000555 ) ) ;
#109 = DATE_AND_TIME ( #199, #925 ) ;
#110 = ADVANCED_FACE ( 'NONE', ( #21 ), #364, .F. ) ;
#111 = FACE_OUTER_BOUND ( 'NONE', #413, .T. ) ;
#112 = DIRECTION ( 'NONE',  ( -0.000000000000000000, 0.000000000000000000, 1.000000000000000000 ) ) ;
#113 = ORIENTED_EDGE ( 'NONE', *, *, #849, .F. ) ;
#114 = EDGE_LOOP ( 'NONE', ( #813, #730, #1000, #632 ) ) ;
#115 = CARTESIAN_POINT ( 'NONE',  ( 0.09375000000000019429, 1.620954110164716502E-17, 1.100000000000000089 ) ) ;
#116 = CIRCLE ( 'NONE', #82, 0.1250000000000001665 ) ;
#117 = DIRECTION ( 'NONE',  ( -0.000000000000000000, 0.000000000000000000, 1.000000000000000000 ) ) ;
#118 = ORIENTED_EDGE ( 'NONE', *, *, #855, .T. ) ;
#119 = DIRECTION ( 'NONE',  ( -1.000000000000000000, 0.000000000000000000, 0.000000000000000000 ) ) ;
#120 = AXIS2_PLACEMENT_3D ( 'NONE', #370, #794, #126 ) ;
#121 = LINE ( 'NONE', #353, #1077 ) ;
#122 = ORIENTED_EDGE ( 'NONE', *, *, #488, .F. ) ;
#123 = ADVANCED_FACE ( 'NONE', ( #451, #704 ), #612, .T. ) ;
#124 = VERTEX_POINT ( 'NONE', #287 ) ;
#125 = CARTESIAN_POINT ( 'NONE',  ( 1.249999999999999334, 1.750000000000000000, -0.3750000000000000555 ) ) ;
#126 = DIRECTION ( 'NONE',  ( -0.000000000000000000, 0.000000000000000000, -1.000000000000000000 ) ) ;
#127 = DIRECTION ( 'NONE',  ( -0.000000000000000000, 0.000000000000000000, 1.000000000000000000 ) ) ;
#128 = CC_DESIGN_PERSON_AND_ORGANIZATION_ASSIGNMENT ( #689, #8, ( #1063 ) ) ;
#129 = ORIENTED_EDGE ( 'NONE', *, *, #102, .T. ) ;
#130 = CYLINDRICAL_SURFACE ( 'NONE', #94, 0.1250000000000001665 ) ;
#131 = CIRCLE ( 'NONE', #678, 0.1250000000000001665 ) ;
#132 = CARTESIAN_POINT ( 'NONE',  ( 1.250000000000000000, -0.3999999999999998557, 0.3750000000000000555 ) ) ;
#133 = ORIENTED_EDGE ( 'NONE', *, *, #722, .F. ) ;
#134 = EDGE_LOOP ( 'NONE', ( #129, #700, #829, #660 ) ) ;
#135 = CARTESIAN_POINT ( 'NONE',  ( 1.749999999999998890, -1.250000000000000222, -0.3750000000000000555 ) ) ;
#136 = EDGE_CURVE ( 'NONE', #4, #960, #371, .T. ) ;
#137 = DIRECTION ( 'NONE',  ( 1.000000000000000000, 0.000000000000000000, 0.000000000000000000 ) ) ;
#138 = EDGE_LOOP ( 'NONE', ( #880, #1064, #712, #158, #873, #919, #67, #377 ) ) ;
#139 = ORIENTED_EDGE ( 'NONE', *, *, #769, .F. ) ;
#140 = DIRECTION ( 'NONE',  ( 0.000000000000000000, 0.000000000000000000, -1.000000000000000000 ) ) ;
#141 = EDGE_CURVE ( 'NONE', #902, #1001, #897, .T. ) ;
#142 = DIRECTION ( 'NONE',  ( 0.000000000000000000, -0.000000000000000000, -1.000000000000000000 ) ) ;
#143 = VERTEX_POINT ( 'NONE', #445 ) ;
#144 = ORIENTED_EDGE ( 'NONE', *, *, #300, .T. ) ;
#145 = FACE_BOUND ( 'NONE', #707, .T. ) ;
#146 = DIRECTION ( 'NONE',  ( -1.000000000000000000, 0.000000000000000000, 0.000000000000000000 ) ) ;
#147 = CIRCLE ( 'NONE', #196, 0.1250000000000001665 ) ;
#148 = CIRCLE ( 'NONE', #719, 0.4375000000000000000 ) ;
#149 = CARTESIAN_POINT ( 'NONE',  ( 1.749999999999998890, 0.000000000000000000, 0.3750000000000000555 ) ) ;
#150 = EDGE_LOOP ( 'NONE', ( #826, #1090, #637, #139 ) ) ;
#151 = ADVANCED_FACE ( 'NONE', ( #193 ), #38, .F. ) ;
#152 = VERTEX_POINT ( 'NONE', #25 ) ;
#153 = CARTESIAN_POINT ( 'NONE',  ( 0.000000000000000000, 0.000000000000000000, -0.3750000000000000555 ) ) ;
#154 = CARTESIAN_POINT ( 'NONE',  ( -0.09374999999999973632, -0.4273373228492919340, 0.000000000000000000 ) ) ;
#155 = VECTOR ( 'NONE', #756, 39.37007874015748143 ) ;
#156 = DIRECTION ( 'NONE',  ( 1.000000000000000000, 0.000000000000000000, 0.000000000000000000 ) ) ;
#157 = CIRCLE ( 'NONE', #686, 0.09375000000000001388 ) ;
#158 = ORIENTED_EDGE ( 'NONE', *, *, #77, .T. ) ;
#159 = EDGE_CURVE ( 'NONE', #44, #61, #467, .T. ) ;
#160 = VERTEX_POINT ( 'NONE', #524 ) ;
#161 = DIRECTION ( 'NONE',  ( -0.000000000000000000, -0.000000000000000000, -1.000000000000000000 ) ) ;
#162 = DIRECTION ( 'NONE',  ( -0.000000000000000000, 0.000000000000000000, 1.000000000000000000 ) ) ;
#163 = ORIENTED_EDGE ( 'NONE', *, *, #890, .F. ) ;
#164 = FACE_BOUND ( 'NONE', #552, .T. ) ;
#165 = UNCERTAINTY_MEASURE_WITH_UNIT (LENGTH_MEASURE( 1.000000000000000082E-05 ), #375, 'distance_accuracy_value', 'NONE');
#166 = DIRECTION ( 'NONE',  ( -0.000000000000000000, 0.000000000000000000, -1.000000000000000000 ) ) ;
#167 = ORIENTED_EDGE ( 'NONE', *, *, #946, .T. ) ;
#168 = ADVANCED_FACE ( 'NONE', ( #282 ), #537, .F. ) ;
#169 = CARTESIAN_POINT ( 'NONE',  ( 0.000000000000000000, 0.000000000000000000, 0.3750000000000000555 ) ) ;
#170 = ORIENTED_EDGE ( 'NONE', *, *, #1058, .F. ) ;
#171 = AXIS2_PLACEMENT_3D ( 'NONE', #169, #846, #764 ) ;
#172 = CARTESIAN_POINT ( 'NONE',  ( -1.250000000000000888, -1.249999999999999778, 0.3750000000000000555 ) ) ;
#173 = EDGE_CURVE ( 'NONE', #222, #1069, #291, .T. ) ;
#174 = LINE ( 'NONE', #523, #1068 ) ;
#175 = ORIENTED_EDGE ( 'NONE', *, *, #675, .T. ) ;
#176 = DIRECTION ( 'NONE',  ( -0.000000000000000000, 0.000000000000000000, 1.000000000000000000 ) ) ;
#177 = PERSON_AND_ORGANIZATION ( #298, #279 ) ;
#178 = PLANE ( 'NONE',  #273 ) ;
#179 = EDGE_CURVE ( 'NONE', #981, #836, #121, .T. ) ;
#180 = VECTOR ( 'NONE', #186, 39.37007874015748143 ) ;
#181 = AXIS2_PLACEMENT_3D ( 'NONE', #800, #276, #780 ) ;
#182 = LINE ( 'NONE', #521, #757 ) ;
#183 = CARTESIAN_POINT ( 'NONE',  ( 0.000000000000000000, 0.000000000000000000, 0.3750000000000000555 ) ) ;
#184 = DIRECTION ( 'NONE',  ( 0.000000000000000000, -0.000000000000000000, -1.000000000000000000 ) ) ;
#185 = EDGE_CURVE ( 'NONE', #195, #251, #383, .T. ) ;
#186 = DIRECTION ( 'NONE',  ( 0.000000000000000000, -1.000000000000000000, 0.000000000000000000 ) ) ;
#187 = PERSON_AND_ORGANIZATION ( #298, #279 ) ;
#188 = DIRECTION ( 'NONE',  ( -0.000000000000000000, 0.000000000000000000, 1.000000000000000000 ) ) ;
#189 = CARTESIAN_POINT ( 'NONE',  ( 1.250000000000000888, 1.250000000000000000, 0.3750000000000000555 ) ) ;
#190 = ORIENTED_EDGE ( 'NONE', *, *, #817, .F. ) ;
#191 = DIRECTION ( 'NONE',  ( -0.000000000000000000, -0.000000000000000000, -1.000000000000000000 ) ) ;
#192 = PERSON_AND_ORGANIZATION_ROLE ( 'creator' ) ;
#193 = FACE_OUTER_BOUND ( 'NONE', #841, .T. ) ;
#194 = VERTEX_POINT ( 'NONE', #565 ) ;
#195 = VERTEX_POINT ( 'NONE', #828 ) ;
#196 = AXIS2_PLACEMENT_3D ( 'NONE', #588, #646, #658 ) ;
#197 = DIRECTION ( 'NONE',  ( 0.000000000000000000, 0.000000000000000000, -1.000000000000000000 ) ) ;
#198 = AXIS2_PLACEMENT_3D ( 'NONE', #872, #964, #376 ) ;
#199 = CALENDAR_DATE ( 2026, 30, 3 ) ;
#200 = EDGE_CURVE ( 'NONE', #1069, #401, #213, .T. ) ;
#201 = APPLICATION_PROTOCOL_DEFINITION ( 'international standard', 'config_control_design', 1994, #527 ) ;
#202 = CARTESIAN_POINT ( 'NONE',  ( -1.250000000000000888, 1.249999999999999778, -0.3750000000000000555 ) ) ;
#203 = ORIENTED_EDGE ( 'NONE', *, *, #256, .F. ) ;
#204 = FACE_OUTER_BOUND ( 'NONE', #114, .T. ) ;
#205 = AXIS2_PLACEMENT_3D ( 'NONE', #1009, #236, #395 ) ;
#206 = CC_DESIGN_APPROVAL ( #988, ( #525 ) ) ;
#207 = MECHANICAL_CONTEXT ( 'NONE', #527, 'mechanical' ) ;
#208 = CARTESIAN_POINT ( 'NONE',  ( -1.250000000000000888, -1.249999999999999778, 0.3750000000000000555 ) ) ;
#209 = PRODUCT_DEFINITION ( 'UNKNOWN', '', #525, #261 ) ;
#210 = ORIENTED_EDGE ( 'NONE', *, *, #382, .T. ) ;
#211 = EDGE_LOOP ( 'NONE', ( #170, #470, #791, #561 ) ) ;
#212 = LINE ( 'NONE', #135, #948 ) ;
#213 = LINE ( 'NONE', #65, #624 ) ;
#214 = EDGE_LOOP ( 'NONE', ( #761, #837, #749, #742, #760, #487 ) ) ;
#215 = DIMENSIONAL_EXPONENTS ( 1.000000000000000000, 0.000000000000000000, 0.000000000000000000, 0.000000000000000000, 0.000000000000000000, 0.000000000000000000, 0.000000000000000000 ) ;
#216 = ADVANCED_FACE ( 'NONE', ( #998 ), #635, .F. ) ;
#217 = ORIENTED_EDGE ( 'NONE', *, *, #609, .T. ) ;
#218 = DIRECTION ( 'NONE',  ( 0.000000000000000000, 1.000000000000000000, 0.000000000000000000 ) ) ;
#219 = AXIS2_PLACEMENT_3D ( 'NONE', #153, #490, #248 ) ;
#220 = DIRECTION ( 'NONE',  ( -0.000000000000000000, 0.000000000000000000, 1.000000000000000000 ) ) ;
#221 = VERTEX_POINT ( 'NONE', #43 ) ;
#222 = VERTEX_POINT ( 'NONE', #388 ) ;
#223 = MANIFOLD_SOLID_BREP ( 'Stock-MA-00020-AB-Bracket-1', #576 ) ;
#224 = LINE ( 'NONE', #1002, #299 ) ;
#225 = ADVANCED_FACE ( 'NONE', ( #397 ), #554, .F. ) ;
#226 = CARTESIAN_POINT ( 'NONE',  ( -0.09374999999999973632, -0.4273373228492919340, 1.100000000000000089 ) ) ;
#227 = CC_DESIGN_APPROVAL ( #920, ( #209 ) ) ;
#228 = CC_DESIGN_SECURITY_CLASSIFICATION ( #435, ( #525 ) ) ;
#229 = ORIENTED_EDGE ( 'NONE', *, *, #141, .F. ) ;
#230 = VERTEX_POINT ( 'NONE', #1067 ) ;
#231 = CARTESIAN_POINT ( 'NONE',  ( 0.09375000000000027756, -0.4273373228492919340, 1.100000000000000089 ) ) ;
#232 = CARTESIAN_POINT ( 'NONE',  ( 0.000000000000000000, -1.750000000000000000, 0.3750000000000000555 ) ) ;
#233 = PLANE ( 'NONE',  #547 ) ;
#234 = ORIENTED_EDGE ( 'NONE', *, *, #976, .F. ) ;
#235 = ORIENTED_EDGE ( 'NONE', *, *, #817, .T. ) ;
#236 = DIRECTION ( 'NONE',  ( 0.000000000000000000, -0.000000000000000000, -1.000000000000000000 ) ) ;
#237 = FACE_OUTER_BOUND ( 'NONE', #460, .T. ) ;
#238 = EDGE_CURVE ( 'NONE', #124, #416, #468, .T. ) ;
#239 = AXIS2_PLACEMENT_3D ( 'NONE', #439, #697, #294 ) ;
#240 = PLANE ( 'NONE',  #865 ) ;
#241 = VERTEX_POINT ( 'NONE', #1071 ) ;
#242 = ORIENTED_EDGE ( 'NONE', *, *, #883, .F. ) ;
#243 = CARTESIAN_POINT ( 'NONE',  ( -1.124999999999999556, -0.4000000000000000777, 0.3750000000000000555 ) ) ;
#244 = DIRECTION ( 'NONE',  ( 1.000000000000000000, 0.000000000000000000, 0.000000000000000000 ) ) ;
#245 = VECTOR ( 'NONE', #582, 39.37007874015748143 ) ;
#246 = ORIENTED_EDGE ( 'NONE', *, *, #751, .F. ) ;
#247 = VERTEX_POINT ( 'NONE', #893 ) ;
#248 = DIRECTION ( 'NONE',  ( 1.000000000000000000, 0.000000000000000000, 0.000000000000000000 ) ) ;
#249 = CARTESIAN_POINT ( 'NONE',  ( 0.1874999999999999445, 0.000000000000000000, 0.000000000000000000 ) ) ;
#250 = VERTEX_POINT ( 'NONE', #723 ) ;
#251 = VERTEX_POINT ( 'NONE', #403 ) ;
#252 = DIRECTION ( 'NONE',  ( -0.000000000000000000, 0.000000000000000000, 1.000000000000000000 ) ) ;
#253 = FACE_BOUND ( 'NONE', #1091, .T. ) ;
#254 = AXIS2_PLACEMENT_3D ( 'NONE', #45, #973, #471 ) ;
#255 = CARTESIAN_POINT ( 'NONE',  ( 1.125000000000000666, -1.250000000000000000, 0.3750000000000000555 ) ) ;
#256 = EDGE_CURVE ( 'NONE', #667, #230, #378, .T. ) ;
#257 = DIRECTION ( 'NONE',  ( 1.000000000000000000, 0.000000000000000000, 0.000000000000000000 ) ) ;
#258 = VERTEX_POINT ( 'NONE', #639 ) ;
#259 = VECTOR ( 'NONE', #161, 39.37007874015748143 ) ;
#260 = CYLINDRICAL_SURFACE ( 'NONE', #644, 0.1250000000000001665 ) ;
#261 = DESIGN_CONTEXT ( 'detailed design', #304, 'design' ) ;
#262 = PERSON_AND_ORGANIZATION_ROLE ( 'creator' ) ;
#263 = EDGE_CURVE ( 'NONE', #331, #654, #590, .T. ) ;
#264 = LINE ( 'NONE', #601, #977 ) ;
#265 = EDGE_LOOP ( 'NONE', ( #953, #904 ) ) ;
#266 = FACE_OUTER_BOUND ( 'NONE', #755, .T. ) ;
#267 = COORDINATED_UNIVERSAL_TIME_OFFSET ( 8, 0, .BEHIND. ) ;
#268 = CARTESIAN_POINT ( 'NONE',  ( -1.250000000000001332, -1.750000000000000000, -0.3750000000000000555 ) ) ;
#269 = DIRECTION ( 'NONE',  ( 0.7071067811865486830, 0.7071067811865463515, 0.000000000000000000 ) ) ;
#270 = EDGE_CURVE ( 'NONE', #143, #401, #147, .T. ) ;
#272 = VECTOR ( 'NONE', #980, 39.37007874015748143 ) ;
#271 = AXIS2_PLACEMENT_3D ( 'NONE', #708, #292, #534 ) ;
#273 = AXIS2_PLACEMENT_3D ( 'NONE', #952, #117, #795 ) ;
#274 = CARTESIAN_POINT ( 'NONE',  ( 0.000000000000000000, 0.000000000000000000, -0.3750000000000000555 ) ) ;
#275 = DIRECTION ( 'NONE',  ( -1.000000000000000000, 0.000000000000000000, 0.000000000000000000 ) ) ;
#276 = DIRECTION ( 'NONE',  ( 0.000000000000000000, 0.000000000000000000, 1.000000000000000000 ) ) ;
#277 = ORIENTED_EDGE ( 'NONE', *, *, #466, .F. ) ;
#278 = DIRECTION ( 'NONE',  ( -0.000000000000000000, 0.000000000000000000, 1.000000000000000000 ) ) ;
#279 = ORGANIZATION ( 'UNSPECIFIED', 'UNSPECIFIED', '' ) ;
#280 = COORDINATED_UNIVERSAL_TIME_OFFSET ( 8, 0, .BEHIND. ) ;
#281 = CARTESIAN_POINT ( 'NONE',  ( -1.250000000000000888, 1.249999999999999778, -0.3750000000000000555 ) ) ;
#282 = FACE_OUTER_BOUND ( 'NONE', #55, .T. ) ;
#283 = ORIENTED_EDGE ( 'NONE', *, *, #982, .F. ) ;
#284 = ORIENTED_EDGE ( 'NONE', *, *, #962, .F. ) ;
#285 = CARTESIAN_POINT ( 'NONE',  ( 1.250000000000000888, 1.250000000000000000, 0.3750000000000000555 ) ) ;
#286 = EDGE_CURVE ( 'NONE', #401, #143, #426, .T. ) ;
#287 = CARTESIAN_POINT ( 'NONE',  ( -0.09374999999999973632, -0.4273373228492919340, 0.3750000000000001110 ) ) ;
#288 = ORIENTED_EDGE ( 'NONE', *, *, #365, .F. ) ;
#289 = EDGE_LOOP ( 'NONE', ( #549, #936 ) ) ;
#291 = CIRCLE ( 'NONE', #986, 0.1250000000000001665 ) ;
#290 = AXIS2_PLACEMENT_3D ( 'NONE', #546, #886, #726 ) ;
#292 = DIRECTION ( 'NONE',  ( -0.000000000000000000, -0.000000000000000000, -1.000000000000000000 ) ) ;
#293 = EDGE_CURVE ( 'NONE', #258, #241, #464, .T. ) ;
#294 = DIRECTION ( 'NONE',  ( 1.000000000000000000, 0.000000000000000000, 0.000000000000000000 ) ) ;
#295 = ORIENTED_EDGE ( 'NONE', *, *, #136, .T. ) ;
#296 = FACE_OUTER_BOUND ( 'NONE', #896, .T. ) ;
#297 = DIRECTION ( 'NONE',  ( 1.000000000000000000, 0.000000000000000000, 0.000000000000000000 ) ) ;
#298 = PERSON ( 'UNSPECIFIED', 'UNSPECIFIED', 'UNSPECIFIED', ('UNSPECIFIED'), ('UNSPECIFIED'), ('UNSPECIFIED') ) ;
#299 = VECTOR ( 'NONE', #64, 39.37007874015748143 ) ;
#300 = EDGE_CURVE ( 'NONE', #1001, #902, #557, .T. ) ;
#301 = ORIENTED_EDGE ( 'NONE', *, *, #351, .F. ) ;
#302 = EDGE_LOOP ( 'NONE', ( #626, #868, #922, #412 ) ) ;
#303 = DIRECTION ( 'NONE',  ( 1.000000000000000000, 0.000000000000000000, 0.000000000000000000 ) ) ;
#304 = APPLICATION_CONTEXT ( 'configuration controlled 3d designs of mechanical parts and assemblies' ) ;
#305 = DIRECTION ( 'NONE',  ( -0.000000000000000000, -0.000000000000000000, -1.000000000000000000 ) ) ;
#306 = ORIENTED_EDGE ( 'NONE', *, *, #13, .T. ) ;
#307 = ADVANCED_FACE ( 'NONE', ( #818 ), #392, .F. ) ;
#308 = ORIENTED_EDGE ( 'NONE', *, *, #270, .T. ) ;
#309 = LINE ( 'NONE', #125, #5 ) ;
#310 = CIRCLE ( 'NONE', #736, 0.1874999999999999445 ) ;
#311 = DIRECTION ( 'NONE',  ( -1.000000000000000000, 0.000000000000000000, 0.000000000000000000 ) ) ;
#312 = ORIENTED_EDGE ( 'NONE', *, *, #996, .F. ) ;
#313 = ORIENTED_EDGE ( 'NONE', *, *, #372, .T. ) ;
#314 = LINE ( 'NONE', #70, #155 ) ;
#315 = CARTESIAN_POINT ( 'NONE',  ( 1.375000000000001110, -1.250000000000000000, -0.3750000000000000555 ) ) ;
#316 = AXIS2_PLACEMENT_3D ( 'NONE', #591, #835, #405 ) ;
#317 = LINE ( 'NONE', #398, #651 ) ;
#318 = VERTEX_POINT ( 'NONE', #1076 ) ;
#319 = ORIENTED_EDGE ( 'NONE', *, *, #459, .T. ) ;
#320 = CARTESIAN_POINT ( 'NONE',  ( 1.124999999999999778, -0.3999999999999998557, 0.3750000000000000555 ) ) ;
#321 = CARTESIAN_POINT ( 'NONE',  ( 1.250000000000000888, 1.250000000000000000, 0.3750000000000000555 ) ) ;
#322 = CARTESIAN_POINT ( 'NONE',  ( 1.249999999999999334, 1.750000000000000000, 0.3750000000000000555 ) ) ;
#323 = VERTEX_POINT ( 'NONE', #991 ) ;
#324 = VERTEX_POINT ( 'NONE', #57 ) ;
#325 = CARTESIAN_POINT ( 'NONE',  ( 1.749999999999998890, 1.249999999999998668, 0.3750000000000000555 ) ) ;
#326 = EDGE_CURVE ( 'NONE', #555, #318, #738, .T. ) ;
#327 = CARTESIAN_POINT ( 'NONE',  ( -1.750000000000001110, 1.250000000000000222, -0.3750000000000000555 ) ) ;
#328 = AXIS2_PLACEMENT_3D ( 'NONE', #52, #142, #297 ) ;
#329 = DIRECTION ( 'NONE',  ( 1.000000000000000000, 0.000000000000000000, 0.000000000000000000 ) ) ;
#330 = LINE ( 'NONE', #847, #59 ) ;
#331 = VERTEX_POINT ( 'NONE', #315 ) ;
#332 = ORIENTED_EDGE ( 'NONE', *, *, #179, .F. ) ;
#333 = CARTESIAN_POINT ( 'NONE',  ( -1.124999999999999556, -0.4000000000000000777, 0.3750000000000000555 ) ) ;
#334 = DIRECTION ( 'NONE',  ( 0.000000000000000000, -0.000000000000000000, 1.000000000000000000 ) ) ;
#335 = CIRCLE ( 'NONE', #724, 0.1250000000000000278 ) ;
#336 = ORIENTED_EDGE ( 'NONE', *, *, #934, .T. ) ;
#337 = ORIENTED_EDGE ( 'NONE', *, *, #766, .F. ) ;
#338 = EDGE_CURVE ( 'NONE', #152, #1096, #116, .T. ) ;
#339 = PLANE ( 'NONE',  #956 ) ;
#340 = FACE_BOUND ( 'NONE', #580, .T. ) ;
#341 = ADVANCED_FACE ( 'NONE', ( #237 ), #577, .F. ) ;
#342 = CIRCLE ( 'NONE', #718, 0.1250000000000001665 ) ;
#343 = DIRECTION ( 'NONE',  ( 1.000000000000000000, 0.000000000000000000, 0.000000000000000000 ) ) ;
#344 = EDGE_LOOP ( 'NONE', ( #360, #113 ) ) ;
#345 = CARTESIAN_POINT ( 'NONE',  ( 1.749999999999998890, 1.249999999999998668, -0.3750000000000000555 ) ) ;
#346 = COORDINATED_UNIVERSAL_TIME_OFFSET ( 8, 0, .BEHIND. ) ;
#347 = DIRECTION ( 'NONE',  ( 1.000000000000000000, 0.000000000000000000, 0.000000000000000000 ) ) ;
#348 = EDGE_LOOP ( 'NONE', ( #932, #786, #319, #49 ) ) ;
#349 = AXIS2_PLACEMENT_3D ( 'NONE', #963, #99, #606 ) ;
#350 = CARTESIAN_POINT ( 'NONE',  ( -0.09374999999999973632, -0.5362499999999998934, 0.000000000000000000 ) ) ;
#351 = EDGE_CURVE ( 'NONE', #448, #981, #510, .T. ) ;
#352 = CARTESIAN_POINT ( 'NONE',  ( -1.125000000000000666, 1.249999999999999778, 0.3750000000000000555 ) ) ;
#353 = CARTESIAN_POINT ( 'NONE',  ( -1.750000000000001110, 1.250000000000000222, -0.3750000000000000555 ) ) ;
#354 = CARTESIAN_POINT ( 'NONE',  ( 2.793725510554899019E-16, -0.5362499999999998934, 0.3750000000000000555 ) ) ;
#355 = CC_DESIGN_PERSON_AND_ORGANIZATION_ASSIGNMENT ( #793, #192, ( #525 ) ) ;
#356 = CARTESIAN_POINT ( 'NONE',  ( -1.750000000000001110, -1.249999999999998668, -0.3750000000000000555 ) ) ;
#357 = DIRECTION ( 'NONE',  ( -0.000000000000000000, 0.000000000000000000, 1.000000000000000000 ) ) ;
#358 = EDGE_LOOP ( 'NONE', ( #500, #203, #579, #907 ) ) ;
#359 = AXIS2_PLACEMENT_3D ( 'NONE', #917, #431, #1094 ) ;
#360 = ORIENTED_EDGE ( 'NONE', *, *, #783, .F. ) ;
#361 = DIRECTION ( 'NONE',  ( 1.000000000000000000, 0.000000000000000000, 0.000000000000000000 ) ) ;
#362 = APPROVAL_ROLE ( '' ) ;
#363 = DIRECTION ( 'NONE',  ( 1.000000000000000000, 0.000000000000000000, 0.000000000000000000 ) ) ;
#364 = CYLINDRICAL_SURFACE ( 'NONE', #181, 0.1874999999999999445 ) ;
#365 = EDGE_CURVE ( 'NONE', #1051, #448, #676, .T. ) ;
#366 = ORIENTED_EDGE ( 'NONE', *, *, #939, .F. ) ;
#367 = DIRECTION ( 'NONE',  ( -0.000000000000000000, -0.000000000000000000, -1.000000000000000000 ) ) ;
#368 = APPROVAL_PERSON_ORGANIZATION ( #967, #988, #362 ) ;
#369 = CC_DESIGN_APPROVAL ( #457, ( #435 ) ) ;
#370 = CARTESIAN_POINT ( 'NONE',  ( -1.250000000000001332, -1.750000000000000000, 0.3750000000000000555 ) ) ;
#371 = LINE ( 'NONE', #630, #808 ) ;
#372 = EDGE_CURVE ( 'NONE', #647, #1055, #342, .T. ) ;
#373 = ORIENTED_EDGE ( 'NONE', *, *, #663, .F. ) ;
#374 = CARTESIAN_POINT ( 'NONE',  ( 0.000000000000000000, 1.750000000000000000, 0.3750000000000000555 ) ) ;
#375 =( CONVERSION_BASED_UNIT ( 'INCH', #710 ) LENGTH_UNIT ( ) NAMED_UNIT ( #215 ) );
#376 = DIRECTION ( 'NONE',  ( 1.000000000000000000, 0.000000000000000000, 0.000000000000000000 ) ) ;
#377 = ORIENTED_EDGE ( 'NONE', *, *, #365, .T. ) ;
#378 = CIRCLE ( 'NONE', #895, 0.1250000000000001665 ) ;
#379 = PLANE ( 'NONE',  #913 ) ;
#380 = CC_DESIGN_PERSON_AND_ORGANIZATION_ASSIGNMENT ( #177, #515, ( #435 ) ) ;
#381 = AXIS2_PLACEMENT_3D ( 'NONE', #16, #1036, #1041 ) ;
#382 = EDGE_CURVE ( 'NONE', #324, #555, #95, .T. ) ;
#383 = LINE ( 'NONE', #232, #272 ) ;
#384 = ORIENTED_EDGE ( 'NONE', *, *, #387, .T. ) ;
#385 = CYLINDRICAL_SURFACE ( 'NONE', #1022, 0.1250000000000001665 ) ;
#386 = LOCAL_TIME ( 15, 32, 59.00000000000000000, #949 ) ;
#387 = EDGE_CURVE ( 'NONE', #323, #819, #310, .T. ) ;
#388 = CARTESIAN_POINT ( 'NONE',  ( -1.125000000000000666, -1.249999999999999778, 0.3750000000000000555 ) ) ;
#389 = ORIENTED_EDGE ( 'NONE', *, *, #663, .T. ) ;
#390 = ORIENTED_EDGE ( 'NONE', *, *, #488, .T. ) ;
#391 = LINE ( 'NONE', #461, #643 ) ;
#392 = CYLINDRICAL_SURFACE ( 'NONE', #878, 0.1250000000000001665 ) ;
#393 = ORIENTED_EDGE ( 'NONE', *, *, #293, .T. ) ;
#394 = VERTEX_POINT ( 'NONE', #101 ) ;
#395 = DIRECTION ( 'NONE',  ( 1.000000000000000000, 0.000000000000000000, 0.000000000000000000 ) ) ;
#396 = AXIS2_PLACEMENT_3D ( 'NONE', #274, #688, #7 ) ;
#397 = FACE_OUTER_BOUND ( 'NONE', #211, .T. ) ;
#398 = CARTESIAN_POINT ( 'NONE',  ( 1.249999999999997558, -1.750000000000000000, 0.3750000000000000555 ) ) ;
#399 = ORIENTED_EDGE ( 'NONE', *, *, #690, .T. ) ;
#400 = EDGE_CURVE ( 'NONE', #1096, #654, #787, .T. ) ;
#401 = VERTEX_POINT ( 'NONE', #770 ) ;
#402 = LINE ( 'NONE', #56, #955 ) ;
#403 = CARTESIAN_POINT ( 'NONE',  ( 1.249999999999997558, -1.750000000000000000, 0.3750000000000000555 ) ) ;
#404 = VECTOR ( 'NONE', #587, 39.37007874015748143 ) ;
#405 = DIRECTION ( 'NONE',  ( 1.000000000000000000, 0.000000000000000000, 0.000000000000000000 ) ) ;
#406 = EDGE_LOOP ( 'NONE', ( #229, #680 ) ) ;
#407 = ORIENTED_EDGE ( 'NONE', *, *, #845, .T. ) ;
#408 = FACE_OUTER_BOUND ( 'NONE', #706, .T. ) ;
#409 = ADVANCED_FACE ( 'NONE', ( #72 ), #937, .F. ) ;
#410 = CARTESIAN_POINT ( 'NONE',  ( -1.249999999999999556, -0.4000000000000000777, 0.3750000000000000555 ) ) ;
#411 = CARTESIAN_POINT ( 'NONE',  ( -1.250000000000001332, -1.750000000000000000, 0.3750000000000000555 ) ) ;
#412 = ORIENTED_EDGE ( 'NONE', *, *, #270, .F. ) ;
#413 = EDGE_LOOP ( 'NONE', ( #725, #874, #283, #1083 ) ) ;
#414 = DIRECTION ( 'NONE',  ( -0.000000000000000000, -0.000000000000000000, -1.000000000000000000 ) ) ;
#415 = EDGE_CURVE ( 'NONE', #667, #713, #528, .T. ) ;
#416 = VERTEX_POINT ( 'NONE', #154 ) ;
#417 = VERTEX_POINT ( 'NONE', #350 ) ;
#418 = CARTESIAN_POINT ( 'NONE',  ( -1.375000000000001110, 1.249999999999999778, 0.3750000000000000555 ) ) ;
#419 = ADVANCED_FACE ( 'NONE', ( #869 ), #260, .F. ) ;
#420 = FACE_OUTER_BOUND ( 'NONE', #583, .T. ) ;
#421 = CIRCLE ( 'NONE', #634, 0.4375000000000000000 ) ;
#422 = DIRECTION ( 'NONE',  ( -0.000000000000000000, -0.000000000000000000, -1.000000000000000000 ) ) ;
#423 = DIRECTION ( 'NONE',  ( -0.000000000000000000, 0.000000000000000000, 1.000000000000000000 ) ) ;
#424 = ORIENTED_EDGE ( 'NONE', *, *, #466, .T. ) ;
#425 = DIRECTION ( 'NONE',  ( -0.000000000000000000, -0.000000000000000000, -1.000000000000000000 ) ) ;
#426 = CIRCLE ( 'NONE', #1060, 0.1250000000000001665 ) ;
#427 = DIRECTION ( 'NONE',  ( -0.7071067811865486830, -0.7071067811865463515, 0.000000000000000000 ) ) ;
#428 = FACE_BOUND ( 'NONE', #344, .T. ) ;
#429 = CIRCLE ( 'NONE', #519, 0.1250000000000001665 ) ;
#430 = EDGE_CURVE ( 'NONE', #819, #323, #483, .T. ) ;
#431 = DIRECTION ( 'NONE',  ( -0.000000000000000000, -0.000000000000000000, -1.000000000000000000 ) ) ;
#432 = PERSON_AND_ORGANIZATION ( #298, #279 ) ;
#433 = CARTESIAN_POINT ( 'NONE',  ( -0.4375000000000000000, 0.000000000000000000, 0.3750000000000000555 ) ) ;
#434 = VERTEX_POINT ( 'NONE', #345 ) ;
#435 = SECURITY_CLASSIFICATION ( '', '', #604 ) ;
#436 = CARTESIAN_POINT ( 'NONE',  ( 0.1874999999999999445, 0.000000000000000000, -0.3750000000000000555 ) ) ;
#437 = VECTOR ( 'NONE', #827, 39.37007874015748143 ) ;
#438 = CARTESIAN_POINT ( 'NONE',  ( -1.249999999999999556, -0.4000000000000000777, 0.3750000000000000555 ) ) ;
#439 = CARTESIAN_POINT ( 'NONE',  ( -1.250000000000000888, -1.249999999999999778, 0.3750000000000000555 ) ) ;
#440 = ORIENTED_EDGE ( 'NONE', *, *, #728, .F. ) ;
#441 = DIRECTION ( 'NONE',  ( 1.000000000000000000, 0.000000000000000000, 0.000000000000000000 ) ) ;
#442 = PERSON_AND_ORGANIZATION_ROLE ( 'design_supplier' ) ;
#443 = ADVANCED_FACE ( 'NONE', ( #752 ), #491, .F. ) ;
#444 = FACE_OUTER_BOUND ( 'NONE', #619, .T. ) ;
#445 = CARTESIAN_POINT ( 'NONE',  ( -1.125000000000000666, -1.249999999999999778, -0.3750000000000000555 ) ) ;
#446 = ORIENTED_EDGE ( 'NONE', *, *, #996, .T. ) ;
#447 = AXIS2_PLACEMENT_3D ( 'NONE', #485, #985, #901 ) ;
#448 = VERTEX_POINT ( 'NONE', #603 ) ;
#449 = CARTESIAN_POINT ( 'NONE',  ( -1.375000000000001110, 1.249999999999999778, 0.3750000000000000555 ) ) ;
#450 = DATE_AND_TIME ( #876, #68 ) ;
#451 = FACE_OUTER_BOUND ( 'NONE', #214, .T. ) ;
#452 = ADVANCED_FACE ( 'NONE', ( #266 ), #598, .F. ) ;
#453 = ORIENTED_EDGE ( 'NONE', *, *, #734, .T. ) ;
#454 = LINE ( 'NONE', #810, #806 ) ;
#455 = CIRCLE ( 'NONE', #349, 0.1250000000000001665 ) ;
#456 = FACE_OUTER_BOUND ( 'NONE', #526, .T. ) ;
#457 = APPROVAL ( #859, 'UNSPECIFIED' ) ;
#458 = VERTEX_POINT ( 'NONE', #947 ) ;
#459 = EDGE_CURVE ( 'NONE', #394, #965, #182, .T. ) ;
#460 = EDGE_LOOP ( 'NONE', ( #545, #453, #748, #1056 ) ) ;
#461 = CARTESIAN_POINT ( 'NONE',  ( -0.09375000000000045797, -1.575069403514554584E-16, 0.3750000000000000555 ) ) ;
#462 = CARTESIAN_POINT ( 'NONE',  ( -1.249999999999999556, -0.4000000000000000777, -0.3750000000000000555 ) ) ;
#463 = ORIENTED_EDGE ( 'NONE', *, *, #544, .F. ) ;
#464 = CIRCLE ( 'NONE', #695, 0.1250000000000000278 ) ;
#465 = CARTESIAN_POINT ( 'NONE',  ( -1.250000000000000888, 1.249999999999999778, 0.3750000000000000555 ) ) ;
#466 = EDGE_CURVE ( 'NONE', #323, #902, #781, .T. ) ;
#467 = CIRCLE ( 'NONE', #1099, 0.1250000000000001665 ) ;
#468 = LINE ( 'NONE', #226, #1024 ) ;
#469 = ORIENTED_EDGE ( 'NONE', *, *, #1003, .T. ) ;
#470 = ORIENTED_EDGE ( 'NONE', *, *, #529, .T. ) ;
#471 = DIRECTION ( 'NONE',  ( 1.000000000000000000, 0.000000000000000000, 0.000000000000000000 ) ) ;
#472 = VECTOR ( 'NONE', #244, 39.37007874015748143 ) ;
#473 = DIRECTION ( 'NONE',  ( 1.000000000000000000, 0.000000000000000000, 0.000000000000000000 ) ) ;
#474 = ORIENTED_EDGE ( 'NONE', *, *, #185, .F. ) ;
#475 = EDGE_LOOP ( 'NONE', ( #891, #393 ) ) ;
#476 = DIRECTION ( 'NONE',  ( -0.000000000000000000, 0.000000000000000000, 1.000000000000000000 ) ) ;
#477 = DIRECTION ( 'NONE',  ( 1.000000000000000000, 0.000000000000000000, 0.000000000000000000 ) ) ;
#478 = EDGE_CURVE ( 'NONE', #448, #250, #610, .T. ) ;
#479 = ORIENTED_EDGE ( 'NONE', *, *, #529, .F. ) ;
#480 = ORIENTED_EDGE ( 'NONE', *, *, #286, .T. ) ;
#481 = PLANE ( 'NONE',  #219 ) ;
#483 = CIRCLE ( 'NONE', #396, 0.1874999999999999445 ) ;
#482 = AXIS2_PLACEMENT_3D ( 'NONE', #51, #1070, #303 ) ;
#484 = AXIS2_PLACEMENT_3D ( 'NONE', #1021, #765, #79 ) ;
#485 = CARTESIAN_POINT ( 'NONE',  ( 0.000000000000000000, 0.000000000000000000, 0.3750000000000000555 ) ) ;
#486 = DIRECTION ( 'NONE',  ( -0.000000000000000000, 0.000000000000000000, -1.000000000000000000 ) ) ;
#487 = ORIENTED_EDGE ( 'NONE', *, *, #1087, .T. ) ;
#488 = EDGE_CURVE ( 'NONE', #654, #331, #677, .T. ) ;
#489 = ORIENTED_EDGE ( 'NONE', *, *, #628, .T. ) ;
#490 = DIRECTION ( 'NONE',  ( -0.000000000000000000, 0.000000000000000000, 1.000000000000000000 ) ) ;
#491 = CYLINDRICAL_SURFACE ( 'NONE', #858, 0.1250000000000001665 ) ;
#492 = AXIS2_PLACEMENT_3D ( 'NONE', #15, #871, #617 ) ;
#493 = FACE_OUTER_BOUND ( 'NONE', #35, .T. ) ;
#494 = ORIENTED_EDGE ( 'NONE', *, *, #478, .F. ) ;
#495 = ORIENTED_EDGE ( 'NONE', *, *, #744, .F. ) ;
#496 = ORIENTED_EDGE ( 'NONE', *, *, #238, .F. ) ;
#497 = LINE ( 'NONE', #586, #843 ) ;
#498 = EDGE_CURVE ( 'NONE', #27, #458, #212, .T. ) ;
#499 = CARTESIAN_POINT ( 'NONE',  ( -1.249999999999999778, 1.750000000000000000, -0.3750000000000000555 ) ) ;
#500 = ORIENTED_EDGE ( 'NONE', *, *, #946, .F. ) ;
#501 = EDGE_LOOP ( 'NONE', ( #163, #389, #589, #1018, #972, #39, #672, #446 ) ) ;
#502 = FACE_BOUND ( 'NONE', #475, .T. ) ;
#503 = EDGE_CURVE ( 'NONE', #809, #754, #605, .T. ) ;
#504 = VECTOR ( 'NONE', #593, 39.37007874015748143 ) ;
#505 = CARTESIAN_POINT ( 'NONE',  ( -1.249999999999999556, -0.4000000000000000777, 0.3750000000000000555 ) ) ;
#506 = ORIENTED_EDGE ( 'NONE', *, *, #551, .T. ) ;
#507 = CARTESIAN_POINT ( 'NONE',  ( -1.750000000000001110, 1.250000000000000222, -0.3750000000000000555 ) ) ;
#508 = AXIS2_PLACEMENT_3D ( 'NONE', #505, #911, #156 ) ;
#509 = LINE ( 'NONE', #88, #608 ) ;
#510 = LINE ( 'NONE', #327, #575 ) ;
#511 = CARTESIAN_POINT ( 'NONE',  ( -1.249999999999999556, -0.4000000000000000777, -0.3750000000000000555 ) ) ;
#512 = FACE_OUTER_BOUND ( 'NONE', #1078, .T. ) ;
#513 = ADVANCED_FACE ( 'NONE', ( #204 ), #385, .F. ) ;
#514 = DIRECTION ( 'NONE',  ( -1.000000000000000000, 0.000000000000000000, 0.000000000000000000 ) ) ;
#515 = PERSON_AND_ORGANIZATION_ROLE ( 'classification_officer' ) ;
#516 = AXIS2_PLACEMENT_3D ( 'NONE', #321, #305, #311 ) ;
#517 = LINE ( 'NONE', #940, #1106 ) ;
#518 = EDGE_LOOP ( 'NONE', ( #284, #440, #802, #1017 ) ) ;
#519 = AXIS2_PLACEMENT_3D ( 'NONE', #607, #971, #33 ) ;
#520 = CC_DESIGN_PERSON_AND_ORGANIZATION_ASSIGNMENT ( #187, #262, ( #209 ) ) ;
#521 = CARTESIAN_POINT ( 'NONE',  ( 0.09375000000000019429, 1.620954110164716502E-17, 0.000000000000000000 ) ) ;
#522 = APPLICATION_PROTOCOL_DEFINITION ( 'international standard', 'config_control_design', 1994, #304 ) ;
#523 = CARTESIAN_POINT ( 'NONE',  ( 1.500000000000001776, 1.499999999999996891, 0.3750000000000000555 ) ) ;
#524 = CARTESIAN_POINT ( 'NONE',  ( 1.749999999999998890, 1.249999999999998668, 0.3750000000000000555 ) ) ;
#525 = PRODUCT_DEFINITION_FORMATION_WITH_SPECIFIED_SOURCE ( 'ANY', '', #1063, .NOT_KNOWN. ) ;
#526 = EDGE_LOOP ( 'NONE', ( #994, #167, #118, #733 ) ) ;
#527 = APPLICATION_CONTEXT ( 'configuration controlled 3d designs of mechanical parts and assemblies' ) ;
#528 = LINE ( 'NONE', #616, #970 ) ;
#529 = EDGE_CURVE ( 'NONE', #597, #124, #540, .T. ) ;
#530 = APPROVAL_ROLE ( '' ) ;
#531 = CARTESIAN_POINT ( 'NONE',  ( 1.249999999999997558, -1.750000000000000000, -0.3750000000000000555 ) ) ;
#532 = DIRECTION ( 'NONE',  ( 0.000000000000000000, 0.000000000000000000, -1.000000000000000000 ) ) ;
#533 = VERTEX_POINT ( 'NONE', #633 ) ;
#534 = DIRECTION ( 'NONE',  ( -1.000000000000000000, 0.000000000000000000, 0.000000000000000000 ) ) ;
#535 = EDGE_CURVE ( 'NONE', #981, #945, #892, .T. ) ;
#536 = FACE_OUTER_BOUND ( 'NONE', #931, .T. ) ;
#537 = CYLINDRICAL_SURFACE ( 'NONE', #788, 0.1250000000000001665 ) ;
#538 = AXIS2_PLACEMENT_3D ( 'NONE', #621, #731, #792 ) ;
#539 = EDGE_LOOP ( 'NONE', ( #336, #295, #1006, #80 ) ) ;
#540 = CIRCLE ( 'NONE', #538, 0.4375000000000000000 ) ;
#541 = ORIENTED_EDGE ( 'NONE', *, *, #535, .T. ) ;
#542 = DIRECTION ( 'NONE',  ( 1.000000000000000000, 0.000000000000000000, 0.000000000000000000 ) ) ;
#543 = DIRECTION ( 'NONE',  ( -0.000000000000000000, -0.000000000000000000, -1.000000000000000000 ) ) ;
#544 = EDGE_CURVE ( 'NONE', #820, #533, #6, .T. ) ;
#545 = ORIENTED_EDGE ( 'NONE', *, *, #89, .T. ) ;
#546 = CARTESIAN_POINT ( 'NONE',  ( 1.250000000000000888, -1.250000000000000000, 0.3750000000000000555 ) ) ;
#547 = AXIS2_PLACEMENT_3D ( 'NONE', #930, #918, #334 ) ;
#548 = LINE ( 'NONE', #618, #758 ) ;
#549 = ORIENTED_EDGE ( 'NONE', *, *, #256, .T. ) ;
#550 = AXIS2_PLACEMENT_3D ( 'NONE', #905, #476, #821 ) ;
#551 = EDGE_CURVE ( 'NONE', #124, #324, #391, .T. ) ;
#552 = EDGE_LOOP ( 'NONE', ( #122, #798 ) ) ;
#553 = CARTESIAN_POINT ( 'NONE',  ( -1.750000000000001110, 0.000000000000000000, -0.3750000000000000555 ) ) ;
#554 = CYLINDRICAL_SURFACE ( 'NONE', #447, 0.4375000000000000000 ) ;
#555 = VERTEX_POINT ( 'NONE', #799 ) ;
#556 = EDGE_LOOP ( 'NONE', ( #337, #666, #625, #815 ) ) ;
#557 = CIRCLE ( 'NONE', #914, 0.1874999999999999445 ) ;
#558 = DIRECTION ( 'NONE',  ( -0.000000000000000000, -0.000000000000000000, -1.000000000000000000 ) ) ;
#559 = DIRECTION ( 'NONE',  ( -0.000000000000000000, -0.000000000000000000, -1.000000000000000000 ) ) ;
#560 = ORIENTED_EDGE ( 'NONE', *, *, #102, .F. ) ;
#561 = ORIENTED_EDGE ( 'NONE', *, *, #1087, .F. ) ;
#562 = CARTESIAN_POINT ( 'NONE',  ( 1.125000000000000666, 1.250000000000000000, 0.3750000000000000555 ) ) ;
#563 = CIRCLE ( 'NONE', #938, 0.1250000000000001665 ) ;
#564 = ADVANCED_FACE ( 'NONE', ( #881 ), #816, .T. ) ;
#565 = CARTESIAN_POINT ( 'NONE',  ( 1.375000000000001110, 1.250000000000000000, 0.3750000000000000555 ) ) ;
#566 = ORIENTED_EDGE ( 'NONE', *, *, #263, .T. ) ;
#567 = ORIENTED_EDGE ( 'NONE', *, *, #498, .F. ) ;
#568 = DIRECTION ( 'NONE',  ( 0.000000000000000000, 0.000000000000000000, -1.000000000000000000 ) ) ;
#569 = ADVANCED_FACE ( 'NONE', ( #296 ), #130, .F. ) ;
#570 = DIRECTION ( 'NONE',  ( 0.000000000000000000, -0.000000000000000000, -1.000000000000000000 ) ) ;
#571 = CARTESIAN_POINT ( 'NONE',  ( -0.09374999999999973632, -0.5362499999999998934, 1.100000000000000089 ) ) ;
#572 = ORIENTED_EDGE ( 'NONE', *, *, #498, .T. ) ;
#573 = EDGE_LOOP ( 'NONE', ( #133, #687 ) ) ;
#574 = LINE ( 'NONE', #333, #86 ) ;
#575 = VECTOR ( 'NONE', #1025, 39.37007874015748143 ) ;
#576 = CLOSED_SHELL ( 'NONE', ( #452, #168, #1019, #929, #216, #594, #1050, #93, #341, #1030, #151, #862, #564, #419, #307, #443, #569, #513, #225, #26, #53, #41, #641, #409, #110, #657, #123, #1101, #830, #797, #650 ) ) ;
#577 = CYLINDRICAL_SURFACE ( 'NONE', #359, 0.1250000000000001665 ) ;
#578 = LINE ( 'NONE', #747, #31 ) ;
#579 = ORIENTED_EDGE ( 'NONE', *, *, #415, .T. ) ;
#580 = EDGE_LOOP ( 'NONE', ( #560, #735 ) ) ;
#581 = DIRECTION ( 'NONE',  ( -0.7071067811865463515, 0.7071067811865486830, -0.000000000000000000 ) ) ;
#582 = DIRECTION ( 'NONE',  ( 0.000000000000000000, 0.000000000000000000, 1.000000000000000000 ) ) ;
#583 = EDGE_LOOP ( 'NONE', ( #54, #366, #312, #567 ) ) ;
#584 = EDGE_CURVE ( 'NONE', #1055, #44, #454, .T. ) ;
#585 = EDGE_LOOP ( 'NONE', ( #908, #921, #1032, #463 ) ) ;
#586 = CARTESIAN_POINT ( 'NONE',  ( 0.09375000000000027756, -0.5362499999999998934, 1.100000000000000089 ) ) ;
#587 = DIRECTION ( 'NONE',  ( 0.000000000000000000, 0.000000000000000000, -1.000000000000000000 ) ) ;
#588 = CARTESIAN_POINT ( 'NONE',  ( -1.250000000000000888, -1.249999999999999778, -0.3750000000000000555 ) ) ;
#589 = ORIENTED_EDGE ( 'NONE', *, *, #535, .F. ) ;
#590 = CIRCLE ( 'NONE', #328, 0.1250000000000001665 ) ;
#591 = CARTESIAN_POINT ( 'NONE',  ( 1.250000000000000000, -0.3999999999999998557, -0.3750000000000000555 ) ) ;
#592 = VERTEX_POINT ( 'NONE', #36 ) ;
#593 = DIRECTION ( 'NONE',  ( -0.000000000000000000, -0.000000000000000000, -1.000000000000000000 ) ) ;
#594 = ADVANCED_FACE ( 'NONE', ( #1057 ), #627, .F. ) ;
#595 = LINE ( 'NONE', #703, #814 ) ;
#596 = CIRCLE ( 'NONE', #1015, 0.1250000000000000278 ) ;
#597 = VERTEX_POINT ( 'NONE', #1075 ) ;
#598 = CYLINDRICAL_SURFACE ( 'NONE', #807, 0.1874999999999999445 ) ;
#599 = DATE_TIME_ROLE ( 'classification_date' ) ;
#600 = EDGE_CURVE ( 'NONE', #1096, #152, #894, .T. ) ;
#601 = CARTESIAN_POINT ( 'NONE',  ( -1.500000000000002887, -1.499999999999998002, 0.3750000000000000555 ) ) ;
#602 = FACE_BOUND ( 'NONE', #265, .T. ) ;
#603 = CARTESIAN_POINT ( 'NONE',  ( -1.750000000000001110, 1.250000000000000222, 0.3750000000000000555 ) ) ;
#604 = SECURITY_CLASSIFICATION_LEVEL ( 'unclassified' ) ;
#605 = CIRCLE ( 'NONE', #254, 0.1250000000000001665 ) ;
#606 = DIRECTION ( 'NONE',  ( 1.000000000000000000, 0.000000000000000000, 0.000000000000000000 ) ) ;
#607 = CARTESIAN_POINT ( 'NONE',  ( 1.250000000000000888, 1.250000000000000000, 0.3750000000000000555 ) ) ;
#608 = VECTOR ( 'NONE', #840, 39.37007874015748143 ) ;
#609 = EDGE_CURVE ( 'NONE', #1055, #647, #1038, .T. ) ;
#610 = LINE ( 'NONE', #954, #180 ) ;
#611 = LINE ( 'NONE', #433, #848 ) ;
#612 = PLANE ( 'NONE',  #42 ) ;
#613 = AXIS2_PLACEMENT_3D ( 'NONE', #281, #850, #347 ) ;
#614 = EDGE_CURVE ( 'NONE', #960, #434, #309, .T. ) ;
#615 = ORIENTED_EDGE ( 'NONE', *, *, #430, .T. ) ;
#616 = CARTESIAN_POINT ( 'NONE',  ( 1.124999999999999778, -0.3999999999999998557, 0.3750000000000000555 ) ) ;
#617 = DIRECTION ( 'NONE',  ( -0.000000000000000000, 0.000000000000000000, -1.000000000000000000 ) ) ;
#618 = CARTESIAN_POINT ( 'NONE',  ( 1.499999999999996891, -1.500000000000001776, 0.3750000000000000555 ) ) ;
#619 = EDGE_LOOP ( 'NONE', ( #541, #989, #494, #1104 ) ) ;
#620 = ORIENTED_EDGE ( 'NONE', *, *, #769, .T. ) ;
#621 = CARTESIAN_POINT ( 'NONE',  ( 0.000000000000000000, 0.000000000000000000, 0.3750000000000000555 ) ) ;
#622 = CALENDAR_DATE ( 2026, 30, 3 ) ;
#623 = CARTESIAN_POINT ( 'NONE',  ( 0.000000000000000000, 0.000000000000000000, 0.000000000000000000 ) ) ;
#624 = VECTOR ( 'NONE', #559, 39.37007874015748143 ) ;
#625 = ORIENTED_EDGE ( 'NONE', *, *, #877, .T. ) ;
#626 = ORIENTED_EDGE ( 'NONE', *, *, #734, .F. ) ;
#627 = CYLINDRICAL_SURFACE ( 'NONE', #271, 0.1250000000000001665 ) ;
#628 = EDGE_CURVE ( 'NONE', #160, #27, #638, .T. ) ;
#629 = DIRECTION ( 'NONE',  ( 1.000000000000000000, 0.000000000000000000, 0.000000000000000000 ) ) ;
#630 = CARTESIAN_POINT ( 'NONE',  ( 1.249999999999999334, 1.750000000000000000, 0.3750000000000000555 ) ) ;
#631 =( GEOMETRIC_REPRESENTATION_CONTEXT ( 3 ) GLOBAL_UNCERTAINTY_ASSIGNED_CONTEXT ( ( #165 ) ) GLOBAL_UNIT_ASSIGNED_CONTEXT ( ( #375, #888, #1053 ) ) REPRESENTATION_CONTEXT ( 'NONE', 'WORKASPACE' ) );
#632 = ORIENTED_EDGE ( 'NONE', *, *, #1042, .F. ) ;
#633 = CARTESIAN_POINT ( 'NONE',  ( -0.4375000000000000000, 0.000000000000000000, 0.000000000000000000 ) ) ;
#634 = AXIS2_PLACEMENT_3D ( 'NONE', #951, #188, #257 ) ;
#635 = CYLINDRICAL_SURFACE ( 'NONE', #516, 0.1250000000000001665 ) ;
#636 = ORIENTED_EDGE ( 'NONE', *, *, #159, .F. ) ;
#637 = ORIENTED_EDGE ( 'NONE', *, *, #159, .T. ) ;
#638 = LINE ( 'NONE', #984, #857 ) ;
#639 = CARTESIAN_POINT ( 'NONE',  ( -1.124999999999999556, -0.4000000000000000777, -0.3750000000000000555 ) ) ;
#640 = ORIENTED_EDGE ( 'NONE', *, *, #1003, .F. ) ;
#641 = ADVANCED_FACE ( 'NONE', ( #875 ), #379, .F. ) ;
#642 = EDGE_LOOP ( 'NONE', ( #22, #1013, #898, #479, #234, #28 ) ) ;
#644 = AXIS2_PLACEMENT_3D ( 'NONE', #172, #693, #514 ) ;
#643 = VECTOR ( 'NONE', #899, 39.37007874015748143 ) ;
#645 = DIRECTION ( 'NONE',  ( -0.7071067811865463515, 0.7071067811865486830, 0.000000000000000000 ) ) ;
#646 = DIRECTION ( 'NONE',  ( -0.000000000000000000, 0.000000000000000000, 1.000000000000000000 ) ) ;
#647 = VERTEX_POINT ( 'NONE', #449 ) ;
#648 = ORIENTED_EDGE ( 'NONE', *, *, #338, .F. ) ;
#649 = FACE_OUTER_BOUND ( 'NONE', #501, .T. ) ;
#650 = ADVANCED_FACE ( 'NONE', ( #408 ), #1092, .T. ) ;
#651 = VECTOR ( 'NONE', #1082, 39.37007874015748143 ) ;
#652 = DIRECTION ( 'NONE',  ( 0.000000000000000000, 0.000000000000000000, -1.000000000000000000 ) ) ;
#653 = LINE ( 'NONE', #411, #404 ) ;
#654 = VERTEX_POINT ( 'NONE', #990 ) ;
#655 = EDGE_LOOP ( 'NONE', ( #1074, #912, #210, #175 ) ) ;
#656 = LINE ( 'NONE', #750, #694 ) ;
#657 = ADVANCED_FACE ( 'NONE', ( #649, #1014, #164, #502, #916, #832, #145, #995 ), #481, .F. ) ;
#658 = DIRECTION ( 'NONE',  ( 1.000000000000000000, 0.000000000000000000, 0.000000000000000000 ) ) ;
#659 = CARTESIAN_POINT ( 'NONE',  ( 0.4375000000000000000, 5.357829746269668895E-17, 0.000000000000000000 ) ) ;
#660 = ORIENTED_EDGE ( 'NONE', *, *, #715, .F. ) ;
#661 = ORIENTED_EDGE ( 'NONE', *, *, #89, .F. ) ;
#662 = CARTESIAN_POINT ( 'NONE',  ( -1.750000000000001110, 1.250000000000000222, 0.3750000000000000555 ) ) ;
#663 = EDGE_CURVE ( 'NONE', #1011, #945, #656, .T. ) ;
#664 = DIRECTION ( 'NONE',  ( -0.000000000000000000, -0.000000000000000000, -1.000000000000000000 ) ) ;
#665 = CARTESIAN_POINT ( 'NONE',  ( 1.250000000000000888, -1.250000000000000000, 0.3750000000000000555 ) ) ;
#666 = ORIENTED_EDGE ( 'NONE', *, *, #849, .T. ) ;
#667 = VERTEX_POINT ( 'NONE', #320 ) ;
#668 = DIRECTION ( 'NONE',  ( 0.000000000000000000, 0.000000000000000000, 1.000000000000000000 ) ) ;
#669 = LOCAL_TIME ( 15, 32, 59.00000000000000000, #1045 ) ;
#670 = CARTESIAN_POINT ( 'NONE',  ( 0.000000000000000000, -1.750000000000000000, -0.3750000000000000555 ) ) ;
#671 = ORIENTED_EDGE ( 'NONE', *, *, #1093, .F. ) ;
#672 = ORIENTED_EDGE ( 'NONE', *, *, #744, .T. ) ;
#673 = LINE ( 'NONE', #1016, #245 ) ;
#674 = EDGE_LOOP ( 'NONE', ( #1049, #941, #959, #390 ) ) ;
#675 = EDGE_CURVE ( 'NONE', #555, #965, #497, .T. ) ;
#676 = LINE ( 'NONE', #701, #771 ) ;
#677 = CIRCLE ( 'NONE', #933, 0.1250000000000001665 ) ;
#678 = AXIS2_PLACEMENT_3D ( 'NONE', #189, #112, #692 ) ;
#679 = CARTESIAN_POINT ( 'NONE',  ( -1.375000000000001110, -1.249999999999999778, 0.3750000000000000555 ) ) ;
#680 = ORIENTED_EDGE ( 'NONE', *, *, #300, .F. ) ;
#681 = DIRECTION ( 'NONE',  ( -0.000000000000000000, -0.000000000000000000, -1.000000000000000000 ) ) ;
#682 = EDGE_CURVE ( 'NONE', #318, #394, #76, .T. ) ;
#683 = DATE_TIME_ROLE ( 'creation_date' ) ;
#684 = VECTOR ( 'NONE', #140, 39.37007874015748143 ) ;
#685 = FACE_OUTER_BOUND ( 'NONE', #75, .T. ) ;
#686 = AXIS2_PLACEMENT_3D ( 'NONE', #926, #162, #73 ) ;
#687 = ORIENTED_EDGE ( 'NONE', *, *, #855, .F. ) ;
#688 = DIRECTION ( 'NONE',  ( -0.000000000000000000, 0.000000000000000000, 1.000000000000000000 ) ) ;
#689 = PERSON_AND_ORGANIZATION ( #298, #279 ) ;
#690 = EDGE_CURVE ( 'NONE', #152, #331, #224, .T. ) ;
#691 = CARTESIAN_POINT ( 'NONE',  ( 1.125000000000000666, -1.250000000000000000, 0.3750000000000000555 ) ) ;
#692 = DIRECTION ( 'NONE',  ( 1.000000000000000000, 0.000000000000000000, 0.000000000000000000 ) ) ;
#693 = DIRECTION ( 'NONE',  ( -0.000000000000000000, -0.000000000000000000, -1.000000000000000000 ) ) ;
#695 = AXIS2_PLACEMENT_3D ( 'NONE', #462, #220, #47 ) ;
#694 = VECTOR ( 'NONE', #581, 39.37007874015748143 ) ;
#696 = CARTESIAN_POINT ( 'NONE',  ( -1.249999999999999778, 1.750000000000000000, 0.3750000000000000555 ) ) ;
#697 = DIRECTION ( 'NONE',  ( -0.000000000000000000, 0.000000000000000000, 1.000000000000000000 ) ) ;
#698 = EDGE_CURVE ( 'NONE', #194, #754, #402, .T. ) ;
#699 = ORIENTED_EDGE ( 'NONE', *, *, #430, .F. ) ;
#700 = ORIENTED_EDGE ( 'NONE', *, *, #698, .T. ) ;
#701 = CARTESIAN_POINT ( 'NONE',  ( -1.499999999999997558, 1.500000000000002665, 0.3750000000000000555 ) ) ;
#702 = CALENDAR_DATE ( 2026, 30, 3 ) ;
#703 = CARTESIAN_POINT ( 'NONE',  ( 1.375000000000000222, -0.3999999999999998557, 0.3750000000000000555 ) ) ;
#704 = FACE_BOUND ( 'NONE', #406, .T. ) ;
#705 = AXIS2_PLACEMENT_3D ( 'NONE', #438, #87, #275 ) ;
#706 = EDGE_LOOP ( 'NONE', ( #288, #246, #332, #301 ) ) ;
#707 = EDGE_LOOP ( 'NONE', ( #1079, #50 ) ) ;
#708 = CARTESIAN_POINT ( 'NONE',  ( -1.250000000000000888, 1.249999999999999778, 0.3750000000000000555 ) ) ;
#709 = APPROVAL_DATE_TIME ( #109, #988 ) ;
#710 = LENGTH_MEASURE_WITH_UNIT ( LENGTH_MEASURE( 0.02539999999999999897 ), #32 );
#711 = CARTESIAN_POINT ( 'NONE',  ( 1.250000000000000888, -1.250000000000000000, 0.3750000000000000555 ) ) ;
#712 = ORIENTED_EDGE ( 'NONE', *, *, #185, .T. ) ;
#713 = VERTEX_POINT ( 'NONE', #909 ) ;
#714 = DIRECTION ( 'NONE',  ( 0.000000000000000000, -0.000000000000000000, 1.000000000000000000 ) ) ;
#715 = EDGE_CURVE ( 'NONE', #592, #809, #924, .T. ) ;
#716 = PLANE ( 'NONE',  #120 ) ;
#717 = DIRECTION ( 'NONE',  ( 1.000000000000000000, 0.000000000000000000, 0.000000000000000000 ) ) ;
#718 = AXIS2_PLACEMENT_3D ( 'NONE', #852, #1044, #775 ) ;
#719 = AXIS2_PLACEMENT_3D ( 'NONE', #106, #357, #1062 ) ;
#720 = EDGE_LOOP ( 'NONE', ( #885, #74, #424, #1085 ) ) ;
#721 = DIRECTION ( 'NONE',  ( 1.000000000000000000, 1.729017717509027238E-16, 0.000000000000000000 ) ) ;
#722 = EDGE_CURVE ( 'NONE', #713, #1098, #104, .T. ) ;
#723 = CARTESIAN_POINT ( 'NONE',  ( -1.750000000000001110, -1.249999999999998668, 0.3750000000000000555 ) ) ;
#724 = AXIS2_PLACEMENT_3D ( 'NONE', #999, #252, #329 ) ;
#725 = ORIENTED_EDGE ( 'NONE', *, *, #783, .T. ) ;
#726 = DIRECTION ( 'NONE',  ( 1.000000000000000000, 0.000000000000000000, 0.000000000000000000 ) ) ;
#727 = DIRECTION ( 'NONE',  ( -0.000000000000000000, 0.000000000000000000, 1.000000000000000000 ) ) ;
#728 = EDGE_CURVE ( 'NONE', #434, #160, #838, .T. ) ;
#729 = EDGE_LOOP ( 'NONE', ( #480, #308 ) ) ;
#730 = ORIENTED_EDGE ( 'NONE', *, *, #71, .T. ) ;
#731 = DIRECTION ( 'NONE',  ( -0.000000000000000000, 0.000000000000000000, 1.000000000000000000 ) ) ;
#732 = CARTESIAN_POINT ( 'NONE',  ( 1.250000000000000000, -0.3999999999999998557, 0.3750000000000000555 ) ) ;
#733 = ORIENTED_EDGE ( 'NONE', *, *, #415, .F. ) ;
#734 = EDGE_CURVE ( 'NONE', #222, #143, #928, .T. ) ;
#735 = ORIENTED_EDGE ( 'NONE', *, *, #71, .F. ) ;
#736 = AXIS2_PLACEMENT_3D ( 'NONE', #97, #278, #1028 ) ;
#737 = DIRECTION ( 'NONE',  ( 0.000000000000000000, -0.000000000000000000, 1.000000000000000000 ) ) ;
#738 = LINE ( 'NONE', #805, #825 ) ;
#739 = CYLINDRICAL_SURFACE ( 'NONE', #171, 0.4375000000000000000 ) ;
#740 = VERTEX_POINT ( 'NONE', #243 ) ;
#741 = CC_DESIGN_DATE_AND_TIME_ASSIGNMENT ( #1029, #599, ( #435 ) ) ;
#742 = ORIENTED_EDGE ( 'NONE', *, *, #776, .T. ) ;
#743 = CARTESIAN_POINT ( 'NONE',  ( -1.125000000000000666, -1.249999999999999778, 0.3750000000000000555 ) ) ;
#744 = EDGE_CURVE ( 'NONE', #434, #458, #314, .T. ) ;
#745 = VECTOR ( 'NONE', #60, 39.37007874015748143 ) ;
#746 = DIRECTION ( 'NONE',  ( 0.000000000000000000, -0.000000000000000000, -1.000000000000000000 ) ) ;
#747 = CARTESIAN_POINT ( 'NONE',  ( -1.374999999999999778, -0.4000000000000000777, 0.3750000000000000555 ) ) ;
#748 = ORIENTED_EDGE ( 'NONE', *, *, #286, .F. ) ;
#749 = ORIENTED_EDGE ( 'NONE', *, *, #459, .F. ) ;
#750 = CARTESIAN_POINT ( 'NONE',  ( -1.250000000000001332, -1.750000000000000000, -0.3750000000000000555 ) ) ;
#751 = EDGE_CURVE ( 'NONE', #836, #1051, #1100, .T. ) ;
#752 = FACE_OUTER_BOUND ( 'NONE', #556, .T. ) ;
#753 = LINE ( 'NONE', #571, #993 ) ;
#754 = VERTEX_POINT ( 'NONE', #1086 ) ;
#755 = EDGE_LOOP ( 'NONE', ( #699, #915, #144, #277 ) ) ;
#756 = DIRECTION ( 'NONE',  ( 0.000000000000000000, -1.000000000000000000, 0.000000000000000000 ) ) ;
#757 = VECTOR ( 'NONE', #863, 39.37007874015748143 ) ;
#758 = VECTOR ( 'NONE', #879, 39.37007874015748143 ) ;
#759 = DIRECTION ( 'NONE',  ( -0.7071067811865486830, -0.7071067811865463515, 0.000000000000000000 ) ) ;
#760 = ORIENTED_EDGE ( 'NONE', *, *, #544, .T. ) ;
#761 = ORIENTED_EDGE ( 'NONE', *, *, #13, .F. ) ;
#762 = LINE ( 'NONE', #418, #997 ) ;
#763 = AXIS2_PLACEMENT_3D ( 'NONE', #37, #1061, #629 ) ;
#764 = DIRECTION ( 'NONE',  ( -1.000000000000000000, 0.000000000000000000, 0.000000000000000000 ) ) ;
#765 = DIRECTION ( 'NONE',  ( -1.000000000000000000, -1.680074030415516870E-15, 0.000000000000000000 ) ) ;
#766 = EDGE_CURVE ( 'NONE', #740, #258, #574, .T. ) ;
#767 = DIRECTION ( 'NONE',  ( -0.000000000000000000, -0.000000000000000000, -1.000000000000000000 ) ) ;
#768 = FACE_OUTER_BOUND ( 'NONE', #674, .T. ) ;
#769 = EDGE_CURVE ( 'NONE', #647, #61, #762, .T. ) ;
#770 = CARTESIAN_POINT ( 'NONE',  ( -1.375000000000001110, -1.249999999999999778, -0.3750000000000000555 ) ) ;
#771 = VECTOR ( 'NONE', #856, 39.37007874015748143 ) ;
#772 = CIRCLE ( 'NONE', #239, 0.1250000000000001665 ) ;
#773 = DIRECTION ( 'NONE',  ( 1.000000000000000000, 0.000000000000000000, 0.000000000000000000 ) ) ;
#774 = FACE_BOUND ( 'NONE', #289, .T. ) ;
#775 = DIRECTION ( 'NONE',  ( 1.000000000000000000, 0.000000000000000000, 0.000000000000000000 ) ) ;
#776 = EDGE_CURVE ( 'NONE', #394, #820, #34, .T. ) ;
#777 = DATE_AND_TIME ( #98, #669 ) ;
#778 = CIRCLE ( 'NONE', #316, 0.1250000000000001665 ) ;
#779 = PLANE ( 'NONE',  #492 ) ;
#780 = DIRECTION ( 'NONE',  ( 1.000000000000000000, 0.000000000000000000, 0.000000000000000000 ) ) ;
#781 = LINE ( 'NONE', #436, #1097 ) ;
#782 = APPROVAL_STATUS ( 'not_yet_approved' ) ;
#783 = EDGE_CURVE ( 'NONE', #247, #740, #335, .T. ) ;
#784 = LINE ( 'NONE', #957, #1084 ) ;
#785 = CYLINDRICAL_SURFACE ( 'NONE', #381, 0.1250000000000001665 ) ;
#786 = ORIENTED_EDGE ( 'NONE', *, *, #682, .T. ) ;
#787 = LINE ( 'NONE', #255, #504 ) ;
#788 = AXIS2_PLACEMENT_3D ( 'NONE', #711, #543, #975 ) ;
#789 = DIRECTION ( 'NONE',  ( -0.000000000000000000, -0.000000000000000000, -1.000000000000000000 ) ) ;
#790 = DIRECTION ( 'NONE',  ( 0.000000000000000000, -0.000000000000000000, 1.000000000000000000 ) ) ;
#791 = ORIENTED_EDGE ( 'NONE', *, *, #238, .T. ) ;
#792 = DIRECTION ( 'NONE',  ( 1.000000000000000000, 0.000000000000000000, 0.000000000000000000 ) ) ;
#793 = PERSON_AND_ORGANIZATION ( #298, #279 ) ;
#794 = DIRECTION ( 'NONE',  ( 0.7071067811865486830, 0.7071067811865463515, 0.000000000000000000 ) ) ;
#795 = DIRECTION ( 'NONE',  ( 1.000000000000000000, 0.000000000000000000, 0.000000000000000000 ) ) ;
#796 = CIRCLE ( 'NONE', #508, 0.1250000000000000278 ) ;
#797 = ADVANCED_FACE ( 'NONE', ( #66 ), #240, .F. ) ;
#798 = ORIENTED_EDGE ( 'NONE', *, *, #263, .F. ) ;
#799 = CARTESIAN_POINT ( 'NONE',  ( 0.09375000000000027756, -0.5362499999999998934, 0.3750000000000001110 ) ) ;
#800 = CARTESIAN_POINT ( 'NONE',  ( 0.000000000000000000, 0.000000000000000000, -0.3750000000000000555 ) ) ;
#801 = EDGE_CURVE ( 'NONE', #417, #965, #157, .T. ) ;
#802 = ORIENTED_EDGE ( 'NONE', *, *, #614, .F. ) ;
#803 = DIRECTION ( 'NONE',  ( 0.7071067811865463515, -0.7071067811865486830, 0.000000000000000000 ) ) ;
#804 = ADVANCED_BREP_SHAPE_REPRESENTATION ( 'MA-00021-AB-Bracket Plate', ( #223, #763 ), #631 ) ;
#805 = CARTESIAN_POINT ( 'NONE',  ( 0.09375000000000019429, 1.620954110164716502E-17, 0.3750000000000000555 ) ) ;
#807 = AXIS2_PLACEMENT_3D ( 'NONE', #942, #1037, #361 ) ;
#806 = VECTOR ( 'NONE', #367, 39.37007874015748143 ) ;
#808 = VECTOR ( 'NONE', #532, 39.37007874015748143 ) ;
#809 = VERTEX_POINT ( 'NONE', #1095 ) ;
#810 = CARTESIAN_POINT ( 'NONE',  ( -1.125000000000000666, 1.249999999999999778, 0.3750000000000000555 ) ) ;
#811 = CARTESIAN_POINT ( 'NONE',  ( -1.250000000000000888, -1.249999999999999778, -0.3750000000000000555 ) ) ;
#812 = ORIENTED_EDGE ( 'NONE', *, *, #682, .F. ) ;
#813 = ORIENTED_EDGE ( 'NONE', *, *, #698, .F. ) ;
#814 = VECTOR ( 'NONE', #789, 39.37007874015748143 ) ;
#815 = ORIENTED_EDGE ( 'NONE', *, *, #293, .F. ) ;
#816 = PLANE ( 'NONE',  #969 ) ;
#817 = EDGE_CURVE ( 'NONE', #195, #1011, #653, .T. ) ;
#818 = FACE_OUTER_BOUND ( 'NONE', #358, .T. ) ;
#819 = VERTEX_POINT ( 'NONE', #1010 ) ;
#820 = VERTEX_POINT ( 'NONE', #659 ) ;
#821 = DIRECTION ( 'NONE',  ( 1.000000000000000000, 0.000000000000000000, 0.000000000000000000 ) ) ;
#822 = CARTESIAN_POINT ( 'NONE',  ( 0.000000000000000000, 0.000000000000000000, 0.000000000000000000 ) ) ;
#823 = FACE_OUTER_BOUND ( 'NONE', #585, .T. ) ;
#824 = EDGE_LOOP ( 'NONE', ( #640, #636 ) ) ;
#825 = VECTOR ( 'NONE', #1081, 39.37007874015748143 ) ;
#826 = ORIENTED_EDGE ( 'NONE', *, *, #609, .F. ) ;
#827 = DIRECTION ( 'NONE',  ( 0.000000000000000000, 0.000000000000000000, 1.000000000000000000 ) ) ;
#828 = CARTESIAN_POINT ( 'NONE',  ( -1.250000000000001332, -1.750000000000000000, 0.3750000000000000555 ) ) ;
#829 = ORIENTED_EDGE ( 'NONE', *, *, #503, .F. ) ;
#830 = ADVANCED_FACE ( 'NONE', ( #420 ), #233, .T. ) ;
#831 = ORIENTED_EDGE ( 'NONE', *, *, #400, .F. ) ;
#832 = FACE_BOUND ( 'NONE', #1043, .T. ) ;
#833 = VECTOR ( 'NONE', #1089, 39.37007874015748143 ) ;
#834 = DIRECTION ( 'NONE',  ( -1.000000000000000000, 0.000000000000000000, 0.000000000000000000 ) ) ;
#835 = DIRECTION ( 'NONE',  ( 0.000000000000000000, -0.000000000000000000, -1.000000000000000000 ) ) ;
#836 = VERTEX_POINT ( 'NONE', #499 ) ;
#837 = ORIENTED_EDGE ( 'NONE', *, *, #801, .T. ) ;
#838 = LINE ( 'NONE', #325, #437 ) ;
#839 = DIRECTION ( 'NONE',  ( 0.000000000000000000, 0.000000000000000000, -1.000000000000000000 ) ) ;
#840 = DIRECTION ( 'NONE',  ( -0.000000000000000000, -0.000000000000000000, -1.000000000000000000 ) ) ;
#841 = EDGE_LOOP ( 'NONE', ( #474, #235, #1073, #107 ) ) ;
#842 = DIRECTION ( 'NONE',  ( -0.000000000000000000, -0.000000000000000000, -1.000000000000000000 ) ) ;
#844 = AXIS2_PLACEMENT_3D ( 'NONE', #354, #176, #441 ) ;
#843 = VECTOR ( 'NONE', #568, 39.37007874015748143 ) ;
#845 = EDGE_CURVE ( 'NONE', #324, #417, #753, .T. ) ;
#846 = DIRECTION ( 'NONE',  ( -0.000000000000000000, -0.000000000000000000, -1.000000000000000000 ) ) ;
#847 = CARTESIAN_POINT ( 'NONE',  ( -0.09375000000000045797, -1.575069403514554584E-16, 0.000000000000000000 ) ) ;
#848 = VECTOR ( 'NONE', #767, 39.37007874015748143 ) ;
#849 = EDGE_CURVE ( 'NONE', #740, #247, #796, .T. ) ;
#850 = DIRECTION ( 'NONE',  ( 0.000000000000000000, -0.000000000000000000, -1.000000000000000000 ) ) ;
#851 = CARTESIAN_POINT ( 'NONE',  ( 1.249999999999999334, 1.750000000000000000, 0.3750000000000000555 ) ) ;
#852 = CARTESIAN_POINT ( 'NONE',  ( -1.250000000000000888, 1.249999999999999778, 0.3750000000000000555 ) ) ;
#853 = DIRECTION ( 'NONE',  ( 0.000000000000000000, -0.000000000000000000, -1.000000000000000000 ) ) ;
#854 = CARTESIAN_POINT ( 'NONE',  ( -1.125000000000000666, 1.249999999999999778, -0.3750000000000000555 ) ) ;
#855 = EDGE_CURVE ( 'NONE', #1098, #713, #778, .T. ) ;
#856 = DIRECTION ( 'NONE',  ( -0.7071067811865486830, -0.7071067811865463515, 0.000000000000000000 ) ) ;
#858 = AXIS2_PLACEMENT_3D ( 'NONE', #410, #681, #834 ) ;
#857 = VECTOR ( 'NONE', #40, 39.37007874015748143 ) ;
#859 = APPROVAL_STATUS ( 'not_yet_approved' ) ;
#860 = CYLINDRICAL_SURFACE ( 'NONE', #85, 0.4375000000000000000 ) ;
#861 = FACE_BOUND ( 'NONE', #642, .T. ) ;
#862 = ADVANCED_FACE ( 'NONE', ( #493 ), #339, .T. ) ;
#863 = DIRECTION ( 'NONE',  ( 1.729017717509027238E-16, -1.000000000000000000, 0.000000000000000000 ) ) ;
#864 = DATE_AND_TIME ( #622, #884 ) ;
#865 = AXIS2_PLACEMENT_3D ( 'NONE', #322, #759, #166 ) ;
#866 = CARTESIAN_POINT ( 'NONE',  ( -0.1874999999999999445, 2.296212748401286185E-17, 0.000000000000000000 ) ) ;
#867 = CARTESIAN_POINT ( 'NONE',  ( -1.375000000000001110, 1.249999999999999778, -0.3750000000000000555 ) ) ;
#868 = ORIENTED_EDGE ( 'NONE', *, *, #173, .T. ) ;
#869 = FACE_OUTER_BOUND ( 'NONE', #302, .T. ) ;
#870 = APPROVAL_ROLE ( '' ) ;
#871 = DIRECTION ( 'NONE',  ( 1.000000000000000000, 0.000000000000000000, -0.000000000000000000 ) ) ;
#872 = CARTESIAN_POINT ( 'NONE',  ( 0.000000000000000000, 0.000000000000000000, 0.000000000000000000 ) ) ;
#873 = ORIENTED_EDGE ( 'NONE', *, *, #628, .F. ) ;
#874 = ORIENTED_EDGE ( 'NONE', *, *, #766, .T. ) ;
#875 = FACE_OUTER_BOUND ( 'NONE', #348, .T. ) ;
#876 = CALENDAR_DATE ( 2026, 30, 3 ) ;
#877 = EDGE_CURVE ( 'NONE', #247, #241, #578, .T. ) ;
#878 = AXIS2_PLACEMENT_3D ( 'NONE', #732, #910, #146 ) ;
#879 = DIRECTION ( 'NONE',  ( 0.7071067811865486830, 0.7071067811865463515, 0.000000000000000000 ) ) ;
#880 = ORIENTED_EDGE ( 'NONE', *, *, #478, .T. ) ;
#881 = FACE_OUTER_BOUND ( 'NONE', #539, .T. ) ;
#882 = DIRECTION ( 'NONE',  ( 1.000000000000000000, 0.000000000000000000, 0.000000000000000000 ) ) ;
#883 = EDGE_CURVE ( 'NONE', #945, #250, #1102, .T. ) ;
#884 = LOCAL_TIME ( 15, 32, 59.00000000000000000, #346 ) ;
#885 = ORIENTED_EDGE ( 'NONE', *, *, #900, .F. ) ;
#886 = DIRECTION ( 'NONE',  ( 0.000000000000000000, -0.000000000000000000, -1.000000000000000000 ) ) ;
#887 = PRODUCT_DEFINITION_SHAPE ( 'NONE', 'NONE',  #209 ) ;
#888 =( NAMED_UNIT ( * ) PLANE_ANGLE_UNIT ( ) SI_UNIT ( $, .RADIAN. ) );
#889 = DIRECTION ( 'NONE',  ( 0.000000000000000000, 1.000000000000000000, 0.000000000000000000 ) ) ;
#890 = EDGE_CURVE ( 'NONE', #1011, #1012, #1005, .T. ) ;
#891 = ORIENTED_EDGE ( 'NONE', *, *, #982, .T. ) ;
#892 = LINE ( 'NONE', #553, #58 ) ;
#893 = CARTESIAN_POINT ( 'NONE',  ( -1.374999999999999778, -0.4000000000000000777, 0.3750000000000000555 ) ) ;
#895 = AXIS2_PLACEMENT_3D ( 'NONE', #132, #570, #473 ) ;
#894 = CIRCLE ( 'NONE', #290, 0.1250000000000001665 ) ;
#896 = EDGE_LOOP ( 'NONE', ( #1103, #63, #620, #469 ) ) ;
#897 = CIRCLE ( 'NONE', #198, 0.1874999999999999445 ) ;
#898 = ORIENTED_EDGE ( 'NONE', *, *, #551, .F. ) ;
#899 = DIRECTION ( 'NONE',  ( 1.680074030415516870E-15, -1.000000000000000000, 0.000000000000000000 ) ) ;
#900 = EDGE_CURVE ( 'NONE', #819, #1001, #673, .T. ) ;
#901 = DIRECTION ( 'NONE',  ( -1.000000000000000000, 0.000000000000000000, 0.000000000000000000 ) ) ;
#902 = VERTEX_POINT ( 'NONE', #249 ) ;
#903 = CIRCLE ( 'NONE', #14, 0.4375000000000000000 ) ;
#904 = ORIENTED_EDGE ( 'NONE', *, *, #338, .T. ) ;
#905 = CARTESIAN_POINT ( 'NONE',  ( 0.000000000000000000, 0.000000000000000000, 0.000000000000000000 ) ) ;
#906 = DIRECTION ( 'NONE',  ( -0.000000000000000000, 0.000000000000000000, 1.000000000000000000 ) ) ;
#907 = ORIENTED_EDGE ( 'NONE', *, *, #722, .T. ) ;
#908 = ORIENTED_EDGE ( 'NONE', *, *, #19, .F. ) ;
#909 = CARTESIAN_POINT ( 'NONE',  ( 1.124999999999999778, -0.3999999999999998557, -0.3750000000000000555 ) ) ;
#910 = DIRECTION ( 'NONE',  ( -0.000000000000000000, -0.000000000000000000, -1.000000000000000000 ) ) ;
#911 = DIRECTION ( 'NONE',  ( -0.000000000000000000, 0.000000000000000000, 1.000000000000000000 ) ) ;
#912 = ORIENTED_EDGE ( 'NONE', *, *, #845, .F. ) ;
#914 = AXIS2_PLACEMENT_3D ( 'NONE', #822, #727, #137 ) ;
#913 = AXIS2_PLACEMENT_3D ( 'NONE', #115, #721, #1065 ) ;
#915 = ORIENTED_EDGE ( 'NONE', *, *, #900, .T. ) ;
#916 = FACE_BOUND ( 'NONE', #573, .T. ) ;
#917 = CARTESIAN_POINT ( 'NONE',  ( -1.250000000000000888, -1.249999999999999778, 0.3750000000000000555 ) ) ;
#918 = DIRECTION ( 'NONE',  ( 0.7071067811865463515, -0.7071067811865486830, -0.000000000000000000 ) ) ;
#919 = ORIENTED_EDGE ( 'NONE', *, *, #962, .T. ) ;
#920 = APPROVAL ( #782, 'UNSPECIFIED' ) ;
#921 = ORIENTED_EDGE ( 'NONE', *, *, #976, .T. ) ;
#922 = ORIENTED_EDGE ( 'NONE', *, *, #200, .T. ) ;
#923 = VECTOR ( 'NONE', #668, 39.37007874015748143 ) ;
#924 = LINE ( 'NONE', #562, #974 ) ;
#925 = LOCAL_TIME ( 15, 32, 59.00000000000000000, #267 ) ;
#926 = CARTESIAN_POINT ( 'NONE',  ( 2.793725510554899019E-16, -0.5362499999999998934, 0.000000000000000000 ) ) ;
#927 = CYLINDRICAL_SURFACE ( 'NONE', #96, 0.1250000000000001665 ) ;
#928 = LINE ( 'NONE', #743, #259 ) ;
#929 = ADVANCED_FACE ( 'NONE', ( #823 ), #739, .F. ) ;
#930 = CARTESIAN_POINT ( 'NONE',  ( 1.749999999999998890, -1.250000000000000222, 0.3750000000000000555 ) ) ;
#931 = EDGE_LOOP ( 'NONE', ( #671, #242, #373, #190 ) ) ;
#932 = ORIENTED_EDGE ( 'NONE', *, *, #326, .T. ) ;
#933 = AXIS2_PLACEMENT_3D ( 'NONE', #108, #23, #966 ) ;
#934 = EDGE_CURVE ( 'NONE', #1051, #4, #1, .T. ) ;
#935 = DIRECTION ( 'NONE',  ( 1.000000000000000000, 0.000000000000000000, -0.000000000000000000 ) ) ;
#936 = ORIENTED_EDGE ( 'NONE', *, *, #968, .T. ) ;
#937 = CYLINDRICAL_SURFACE ( 'NONE', #1007, 0.09375000000000001388 ) ;
#938 = AXIS2_PLACEMENT_3D ( 'NONE', #24, #853, #773 ) ;
#939 = EDGE_CURVE ( 'NONE', #1012, #251, #317, .T. ) ;
#940 = CARTESIAN_POINT ( 'NONE',  ( 1.749999999999998890, -1.250000000000000222, -0.3750000000000000555 ) ) ;
#941 = ORIENTED_EDGE ( 'NONE', *, *, #600, .F. ) ;
#942 = CARTESIAN_POINT ( 'NONE',  ( 0.000000000000000000, 0.000000000000000000, -0.3750000000000000555 ) ) ;
#943 = PERSON_AND_ORGANIZATION ( #298, #279 ) ;
#944 = DIRECTION ( 'NONE',  ( 0.7071067811865463515, -0.7071067811865486830, 0.000000000000000000 ) ) ;
#945 = VERTEX_POINT ( 'NONE', #356 ) ;
#946 = EDGE_CURVE ( 'NONE', #230, #1098, #595, .T. ) ;
#947 = CARTESIAN_POINT ( 'NONE',  ( 1.749999999999998890, -1.250000000000000222, -0.3750000000000000555 ) ) ;
#948 = VECTOR ( 'NONE', #197, 39.37007874015748143 ) ;
#949 = COORDINATED_UNIVERSAL_TIME_OFFSET ( 8, 0, .BEHIND. ) ;
#950 = AXIS2_PLACEMENT_3D ( 'NONE', #1048, #889, #790 ) ;
#951 = CARTESIAN_POINT ( 'NONE',  ( 0.000000000000000000, 0.000000000000000000, 0.000000000000000000 ) ) ;
#952 = CARTESIAN_POINT ( 'NONE',  ( 0.000000000000000000, 0.000000000000000000, 0.3750000000000000555 ) ) ;
#953 = ORIENTED_EDGE ( 'NONE', *, *, #600, .T. ) ;
#954 = CARTESIAN_POINT ( 'NONE',  ( -1.750000000000001110, 0.000000000000000000, 0.3750000000000000555 ) ) ;
#955 = VECTOR ( 'NONE', #1080, 39.37007874015748143 ) ;
#956 = AXIS2_PLACEMENT_3D ( 'NONE', #149, #935, #486 ) ;
#957 = CARTESIAN_POINT ( 'NONE',  ( -0.000000000000000000, 1.750000000000000000, -0.3750000000000000555 ) ) ;
#958 = DIRECTION ( 'NONE',  ( 1.000000000000000000, 0.000000000000000000, 0.000000000000000000 ) ) ;
#959 = ORIENTED_EDGE ( 'NONE', *, *, #400, .T. ) ;
#960 = VERTEX_POINT ( 'NONE', #9 ) ;
#961 = DIRECTION ( 'NONE',  ( -0.000000000000000000, 0.000000000000000000, 1.000000000000000000 ) ) ;
#962 = EDGE_CURVE ( 'NONE', #160, #4, #174, .T. ) ;
#963 = CARTESIAN_POINT ( 'NONE',  ( 1.250000000000000888, 1.250000000000000000, -0.3750000000000000555 ) ) ;
#964 = DIRECTION ( 'NONE',  ( -0.000000000000000000, 0.000000000000000000, 1.000000000000000000 ) ) ;
#965 = VERTEX_POINT ( 'NONE', #20 ) ;
#966 = DIRECTION ( 'NONE',  ( 1.000000000000000000, 0.000000000000000000, 0.000000000000000000 ) ) ;
#967 = PERSON_AND_ORGANIZATION ( #298, #279 ) ;
#968 = EDGE_CURVE ( 'NONE', #230, #667, #563, .T. ) ;
#970 = VECTOR ( 'NONE', #425, 39.37007874015748143 ) ;
#969 = AXIS2_PLACEMENT_3D ( 'NONE', #374, #218, #714 ) ;
#971 = DIRECTION ( 'NONE',  ( -0.000000000000000000, 0.000000000000000000, 1.000000000000000000 ) ) ;
#972 = ORIENTED_EDGE ( 'NONE', *, *, #1066, .T. ) ;
#973 = DIRECTION ( 'NONE',  ( -0.000000000000000000, 0.000000000000000000, 1.000000000000000000 ) ) ;
#974 = VECTOR ( 'NONE', #414, 39.37007874015748143 ) ;
#975 = DIRECTION ( 'NONE',  ( -1.000000000000000000, 0.000000000000000000, 0.000000000000000000 ) ) ;
#976 = EDGE_CURVE ( 'NONE', #221, #597, #903, .T. ) ;
#977 = VECTOR ( 'NONE', #944, 39.37007874015748143 ) ;
#978 = ORIENTED_EDGE ( 'NONE', *, *, #173, .F. ) ;
#979 = CARTESIAN_POINT ( 'NONE',  ( 0.000000000000000000, 0.000000000000000000, 0.000000000000000000 ) ) ;
#980 = DIRECTION ( 'NONE',  ( 1.000000000000000000, 0.000000000000000000, 0.000000000000000000 ) ) ;
#981 = VERTEX_POINT ( 'NONE', #507 ) ;
#982 = EDGE_CURVE ( 'NONE', #241, #258, #596, .T. ) ;
#983 = ORIENTED_EDGE ( 'NONE', *, *, #19, .T. ) ;
#984 = CARTESIAN_POINT ( 'NONE',  ( 1.749999999999998890, 0.000000000000000000, 0.3750000000000000555 ) ) ;
#985 = DIRECTION ( 'NONE',  ( -0.000000000000000000, -0.000000000000000000, -1.000000000000000000 ) ) ;
#986 = AXIS2_PLACEMENT_3D ( 'NONE', #208, #127, #882 ) ;
#987 = ORIENTED_EDGE ( 'NONE', *, *, #62, .T. ) ;
#988 = APPROVAL ( #1034, 'UNSPECIFIED' ) ;
#989 = ORIENTED_EDGE ( 'NONE', *, *, #883, .T. ) ;
#990 = CARTESIAN_POINT ( 'NONE',  ( 1.125000000000000666, -1.250000000000000000, -0.3750000000000000555 ) ) ;
#991 = CARTESIAN_POINT ( 'NONE',  ( 0.1874999999999999445, 0.000000000000000000, -0.3750000000000000555 ) ) ;
#992 = EDGE_LOOP ( 'NONE', ( #661, #978 ) ) ;
#993 = VECTOR ( 'NONE', #839, 39.37007874015748143 ) ;
#994 = ORIENTED_EDGE ( 'NONE', *, *, #968, .F. ) ;
#995 = FACE_BOUND ( 'NONE', #824, .T. ) ;
#996 = EDGE_CURVE ( 'NONE', #458, #1012, #517, .T. ) ;
#997 = VECTOR ( 'NONE', #1105, 39.37007874015748143 ) ;
#998 = FACE_OUTER_BOUND ( 'NONE', #134, .T. ) ;
#999 = CARTESIAN_POINT ( 'NONE',  ( -1.249999999999999556, -0.4000000000000000777, 0.3750000000000000555 ) ) ;
#1000 = ORIENTED_EDGE ( 'NONE', *, *, #715, .T. ) ;
#1001 = VERTEX_POINT ( 'NONE', #866 ) ;
#1002 = CARTESIAN_POINT ( 'NONE',  ( 1.375000000000001110, -1.250000000000000000, 0.3750000000000000555 ) ) ;
#1003 = EDGE_CURVE ( 'NONE', #61, #44, #12, .T. ) ;
#1004 = CARTESIAN_POINT ( 'NONE',  ( 1.250000000000000888, -1.250000000000000000, 0.3750000000000000555 ) ) ;
#1005 = LINE ( 'NONE', #670, #472 ) ;
#1006 = ORIENTED_EDGE ( 'NONE', *, *, #1066, .F. ) ;
#1007 = AXIS2_PLACEMENT_3D ( 'NONE', #1033, #90, #11 ) ;
#1008 = ORIENTED_EDGE ( 'NONE', *, *, #728, .T. ) ;
#1009 = CARTESIAN_POINT ( 'NONE',  ( 1.250000000000000000, -0.3999999999999998557, -0.3750000000000000555 ) ) ;
#1010 = CARTESIAN_POINT ( 'NONE',  ( -0.1874999999999999445, 2.296212748401286185E-17, -0.3750000000000000555 ) ) ;
#1011 = VERTEX_POINT ( 'NONE', #268 ) ;
#1012 = VERTEX_POINT ( 'NONE', #531 ) ;
#1013 = ORIENTED_EDGE ( 'NONE', *, *, #382, .F. ) ;
#1014 = FACE_BOUND ( 'NONE', #729, .T. ) ;
#1015 = AXIS2_PLACEMENT_3D ( 'NONE', #511, #3, #363 ) ;
#1016 = CARTESIAN_POINT ( 'NONE',  ( -0.1874999999999999445, 2.296212748401286185E-17, -0.3750000000000000555 ) ) ;
#1017 = ORIENTED_EDGE ( 'NONE', *, *, #136, .F. ) ;
#1018 = ORIENTED_EDGE ( 'NONE', *, *, #179, .T. ) ;
#1019 = ADVANCED_FACE ( 'NONE', ( #685 ), #860, .F. ) ;
#1020 = CARTESIAN_POINT ( 'NONE',  ( 0.000000000000000000, 1.750000000000000000, 0.3750000000000000555 ) ) ;
#1021 = CARTESIAN_POINT ( 'NONE',  ( -0.09375000000000045797, -1.575069403514554584E-16, 1.100000000000000089 ) ) ;
#1022 = AXIS2_PLACEMENT_3D ( 'NONE', #285, #558, #1052 ) ;
#1023 = CC_DESIGN_PERSON_AND_ORGANIZATION_ASSIGNMENT ( #432, #442, ( #525 ) ) ;
#1024 = VECTOR ( 'NONE', #652, 39.37007874015748143 ) ;
#1025 = DIRECTION ( 'NONE',  ( 0.000000000000000000, 0.000000000000000000, -1.000000000000000000 ) ) ;
#1026 = CARTESIAN_POINT ( 'NONE',  ( 0.000000000000000000, 0.000000000000000000, 0.3750000000000000555 ) ) ;
#1027 = DIRECTION ( 'NONE',  ( -1.680074030415516870E-15, 1.000000000000000000, 0.000000000000000000 ) ) ;
#1028 = DIRECTION ( 'NONE',  ( 1.000000000000000000, 0.000000000000000000, 0.000000000000000000 ) ) ;
#1029 = DATE_AND_TIME ( #702, #386 ) ;
#1030 = ADVANCED_FACE ( 'NONE', ( #444 ), #779, .F. ) ;
#1031 = DIRECTION ( 'NONE',  ( -1.000000000000000000, 0.000000000000000000, 0.000000000000000000 ) ) ;
#1032 = ORIENTED_EDGE ( 'NONE', *, *, #1058, .T. ) ;
#1033 = CARTESIAN_POINT ( 'NONE',  ( 2.793725510554899019E-16, -0.5362499999999998934, 0.3750000000000000555 ) ) ;
#1034 = APPROVAL_STATUS ( 'not_yet_approved' ) ;
#1035 = CARTESIAN_POINT ( 'NONE',  ( 1.375000000000000222, -0.3999999999999998557, -0.3750000000000000555 ) ) ;
#1036 = DIRECTION ( 'NONE',  ( -0.000000000000000000, -0.000000000000000000, -1.000000000000000000 ) ) ;
#1037 = DIRECTION ( 'NONE',  ( 0.000000000000000000, 0.000000000000000000, 1.000000000000000000 ) ) ;
#1038 = CIRCLE ( 'NONE', #482, 0.1250000000000001665 ) ;
#1039 = APPROVAL_DATE_TIME ( #777, #457 ) ;
#1040 = DIRECTION ( 'NONE',  ( -0.000000000000000000, -0.000000000000000000, -1.000000000000000000 ) ) ;
#1041 = DIRECTION ( 'NONE',  ( -1.000000000000000000, 0.000000000000000000, 0.000000000000000000 ) ) ;
#1042 = EDGE_CURVE ( 'NONE', #754, #809, #455, .T. ) ;
#1043 = EDGE_LOOP ( 'NONE', ( #384, #615 ) ) ;
#1044 = DIRECTION ( 'NONE',  ( 0.000000000000000000, -0.000000000000000000, -1.000000000000000000 ) ) ;
#1045 = COORDINATED_UNIVERSAL_TIME_OFFSET ( 8, 0, .BEHIND. ) ;
#1046 = APPROVAL_PERSON_ORGANIZATION ( #18, #920, #870 ) ;
#1047 = DIRECTION ( 'NONE',  ( 1.000000000000000000, 0.000000000000000000, 0.000000000000000000 ) ) ;
#1048 = CARTESIAN_POINT ( 'NONE',  ( 0.000000000000000000, -1.750000000000000000, 0.3750000000000000555 ) ) ;
#1049 = ORIENTED_EDGE ( 'NONE', *, *, #690, .F. ) ;
#1050 = ADVANCED_FACE ( 'NONE', ( #111 ), #105, .F. ) ;
#1051 = VERTEX_POINT ( 'NONE', #696 ) ;
#1052 = DIRECTION ( 'NONE',  ( -1.000000000000000000, 0.000000000000000000, 0.000000000000000000 ) ) ;
#1053 =( NAMED_UNIT ( * ) SI_UNIT ( $, .STERADIAN. ) SOLID_ANGLE_UNIT ( ) );
#1054 = DIRECTION ( 'NONE',  ( -0.000000000000000000, 0.000000000000000000, 1.000000000000000000 ) ) ;
#1055 = VERTEX_POINT ( 'NONE', #352 ) ;
#1056 = ORIENTED_EDGE ( 'NONE', *, *, #200, .F. ) ;
#1057 = FACE_OUTER_BOUND ( 'NONE', #150, .T. ) ;
#1058 = EDGE_CURVE ( 'NONE', #597, #533, #611, .T. ) ;
#1060 = AXIS2_PLACEMENT_3D ( 'NONE', #811, #906, #477 ) ;
#1059 = AXIS2_PLACEMENT_3D ( 'NONE', #979, #961, #542 ) ;
#1061 = DIRECTION ( 'NONE',  ( 0.000000000000000000, 0.000000000000000000, 1.000000000000000000 ) ) ;
#1062 = DIRECTION ( 'NONE',  ( 1.000000000000000000, 0.000000000000000000, 0.000000000000000000 ) ) ;
#1063 = PRODUCT ( 'MA-00021-AB-Bracket Plate', 'MA-00021-AB-Bracket Plate', '', ( #207 ) ) ;
#1064 = ORIENTED_EDGE ( 'NONE', *, *, #1093, .T. ) ;
#1065 = DIRECTION ( 'NONE',  ( -1.729017717509027238E-16, 1.000000000000000000, 0.000000000000000000 ) ) ;
#1066 = EDGE_CURVE ( 'NONE', #836, #960, #784, .T. ) ;
#1067 = CARTESIAN_POINT ( 'NONE',  ( 1.375000000000000222, -0.3999999999999998557, 0.3750000000000000555 ) ) ;
#1068 = VECTOR ( 'NONE', #91, 39.37007874015748143 ) ;
#1069 = VERTEX_POINT ( 'NONE', #679 ) ;
#1070 = DIRECTION ( 'NONE',  ( 0.000000000000000000, -0.000000000000000000, -1.000000000000000000 ) ) ;
#1071 = CARTESIAN_POINT ( 'NONE',  ( -1.374999999999999778, -0.4000000000000000777, -0.3750000000000000555 ) ) ;
#1072 = CC_DESIGN_DATE_AND_TIME_ASSIGNMENT ( #450, #683, ( #209 ) ) ;
#1073 = ORIENTED_EDGE ( 'NONE', *, *, #890, .T. ) ;
#1074 = ORIENTED_EDGE ( 'NONE', *, *, #801, .F. ) ;
#1075 = CARTESIAN_POINT ( 'NONE',  ( -0.4375000000000000000, 0.000000000000000000, 0.3750000000000000555 ) ) ;
#1076 = CARTESIAN_POINT ( 'NONE',  ( 0.09375000000000027756, -0.4273373228492919340, 0.3750000000000001110 ) ) ;
#1077 = VECTOR ( 'NONE', #269, 39.37007874015748143 ) ;
#1078 = EDGE_LOOP ( 'NONE', ( #506, #407, #306, #496 ) ) ;
#1079 = ORIENTED_EDGE ( 'NONE', *, *, #503, .T. ) ;
#1080 = DIRECTION ( 'NONE',  ( -0.000000000000000000, -0.000000000000000000, -1.000000000000000000 ) ) ;
#1081 = DIRECTION ( 'NONE',  ( -1.729017717509027238E-16, 1.000000000000000000, -0.000000000000000000 ) ) ;
#1082 = DIRECTION ( 'NONE',  ( 0.000000000000000000, 0.000000000000000000, 1.000000000000000000 ) ) ;
#1083 = ORIENTED_EDGE ( 'NONE', *, *, #877, .F. ) ;
#1084 = VECTOR ( 'NONE', #343, 39.37007874015748143 ) ;
#1085 = ORIENTED_EDGE ( 'NONE', *, *, #141, .T. ) ;
#1086 = CARTESIAN_POINT ( 'NONE',  ( 1.375000000000001110, 1.250000000000000000, -0.3750000000000000555 ) ) ;
#1087 = EDGE_CURVE ( 'NONE', #533, #416, #421, .T. ) ;
#1088 = DIRECTION ( 'NONE',  ( 1.000000000000000000, 0.000000000000000000, 0.000000000000000000 ) ) ;
#1089 = DIRECTION ( 'NONE',  ( 0.000000000000000000, 0.000000000000000000, 1.000000000000000000 ) ) ;
#1090 = ORIENTED_EDGE ( 'NONE', *, *, #584, .T. ) ;
#1091 = EDGE_LOOP ( 'NONE', ( #313, #217 ) ) ;
#1092 = PLANE ( 'NONE',  #81 ) ;
#1093 = EDGE_CURVE ( 'NONE', #250, #195, #264, .T. ) ;
#1094 = DIRECTION ( 'NONE',  ( -1.000000000000000000, 0.000000000000000000, 0.000000000000000000 ) ) ;
#1095 = CARTESIAN_POINT ( 'NONE',  ( 1.125000000000000666, 1.250000000000000000, -0.3750000000000000555 ) ) ;
#1096 = VERTEX_POINT ( 'NONE', #691 ) ;
#1097 = VECTOR ( 'NONE', #17, 39.37007874015748143 ) ;
#1098 = VERTEX_POINT ( 'NONE', #1035 ) ;
#1099 = AXIS2_PLACEMENT_3D ( 'NONE', #202, #184, #717 ) ;
#1100 = LINE ( 'NONE', #83, #923 ) ;
#1101 = ADVANCED_FACE ( 'NONE', ( #536 ), #716, .F. ) ;
#1102 = LINE ( 'NONE', #78, #833 ) ;
#1103 = ORIENTED_EDGE ( 'NONE', *, *, #584, .F. ) ;
#1104 = ORIENTED_EDGE ( 'NONE', *, *, #351, .T. ) ;
#1105 = DIRECTION ( 'NONE',  ( -0.000000000000000000, -0.000000000000000000, -1.000000000000000000 ) ) ;
#1106 = VECTOR ( 'NONE', #427, 39.37007874015748143 ) ;
ENDSEC;
END-ISO-10303-21;
